<?xml version="1.0" encoding="utf-8"?>
<!-- Generator: Adobe Illustrator 22.1.0, SVG Export Plug-In . SVG Version: 6.00 Build 0)  -->
<svg version="1.1" id="Icon_Set" xmlns="http://www.w3.org/2000/svg" xmlns:xlink="http://www.w3.org/1999/xlink" x="0px" y="0px"
	 viewBox="0 0 512 512" style="enable-background:new 0 0 512 512;" xml:space="preserve">
<style type="text/css">
	.st0{fill:#F0C48A;}
	.st1{fill:#FD919E;}
	.st2{fill:#4C4372;}
	.st3{fill:#D3E6F8;}
	.st4{fill:#A4CFF2;}
	.st5{fill:#7BABF1;}
	.st6{fill:#FFFFFF;}
	.st7{fill:#E8677D;}
	.st8{fill:none;stroke:#4C4372;stroke-width:12;stroke-linecap:round;stroke-linejoin:round;stroke-miterlimit:10;}
</style>
<g id="Supplies_Cart">
	<g>
		<g>
			<circle class="st0" cx="256" cy="256" r="207"/>
		</g>
	</g>
	<g>
		<g>
			<polygon class="st3" points="299.304,284.252 138.25,284.252 110.788,153.162 326.765,153.162 			"/>
		</g>
		<g>
			<g>
				<path class="st5" d="M325.376,330.884H106.581c-6.254,0-11.324-5.07-11.324-11.324c0-6.254,5.07-11.324,11.324-11.324h209.812
					l34.192-146.327c1.197-5.123,5.765-8.747,11.026-8.747h43.808c6.254,0,11.324,5.07,11.324,11.324
					c0,6.254-5.07,11.324-11.324,11.324h-34.825l-34.192,146.327C335.205,327.26,330.637,330.884,325.376,330.884z"/>
			</g>
		</g>
		<g>
			<circle class="st5" cx="164.951" cy="378.18" r="30.485"/>
		</g>
		<g>
			<circle class="st5" cx="282.123" cy="378.18" r="30.485"/>
		</g>
		<g>
			<g>
				<polygon class="st1" points="259.387,205.072 231.972,205.072 231.972,177.657 203.343,177.657 203.343,205.072 
					175.927,205.072 175.927,233.701 203.343,233.701 203.343,261.117 231.972,261.117 231.972,233.701 259.387,233.701 				"/>
			</g>
			<g>
				<path class="st2" d="M231.972,267.117h-28.629c-3.313,0-6-2.687-6-6v-21.416h-21.415c-3.313,0-6-2.687-6-6v-28.629
					c0-3.313,2.687-6,6-6h21.415v-21.415c0-3.313,2.687-6,6-6h28.629c3.313,0,6,2.687,6,6v21.415h21.416c3.313,0,6,2.687,6,6v28.629
					c0,3.313-2.687,6-6,6h-21.416v21.416C237.972,264.43,235.285,267.117,231.972,267.117z M209.343,255.117h16.629v-21.416
					c0-3.313,2.687-6,6-6h21.416v-16.629h-21.416c-3.313,0-6-2.687-6-6v-21.415h-16.629v21.415c0,3.313-2.687,6-6,6h-21.415v16.629
					h21.415c3.313,0,6,2.687,6,6V255.117z"/>
			</g>
		</g>
		<g>
			<g>
				<path class="st2" d="M325.376,336.884H106.581c-9.553,0-17.324-7.771-17.324-17.324s7.771-17.324,17.324-17.324h205.052
					l33.109-141.692c1.84-7.879,8.776-13.382,16.869-13.382h43.808c9.553,0,17.324,7.771,17.324,17.324s-7.771,17.324-17.324,17.324
					h-30.065l-33.108,141.692C340.403,331.381,333.467,336.884,325.376,336.884z M106.581,314.236c-2.936,0-5.324,2.388-5.324,5.324
					s2.389,5.324,5.324,5.324h218.795c2.486,0,4.618-1.691,5.184-4.112l34.191-146.327c0.635-2.715,3.055-4.635,5.843-4.635h34.825
					c2.936,0,5.324-2.388,5.324-5.324s-2.389-5.324-5.324-5.324h-43.808c-2.486,0-4.618,1.69-5.184,4.111l-34.192,146.328
					c-0.635,2.715-3.055,4.635-5.843,4.635H106.581z"/>
			</g>
		</g>
		<g>
			<path class="st2" d="M164.951,414.666c-20.118,0-36.485-16.367-36.485-36.485s16.367-36.486,36.485-36.486
				s36.485,16.368,36.485,36.486S185.069,414.666,164.951,414.666z M164.951,353.695c-13.501,0-24.485,10.984-24.485,24.486
				s10.984,24.485,24.485,24.485s24.485-10.984,24.485-24.485S178.452,353.695,164.951,353.695z"/>
		</g>
		<g>
			<circle class="st2" cx="164.951" cy="378.18" r="12.476"/>
		</g>
		<g>
			<path class="st2" d="M282.123,414.666c-20.118,0-36.485-16.367-36.485-36.485s16.367-36.486,36.485-36.486
				s36.485,16.368,36.485,36.486S302.241,414.666,282.123,414.666z M282.123,353.695c-13.501,0-24.485,10.984-24.485,24.486
				s10.984,24.485,24.485,24.485s24.485-10.984,24.485-24.485S295.624,353.695,282.123,353.695z"/>
		</g>
		<g>
			<circle class="st2" cx="282.123" cy="378.18" r="12.476"/>
		</g>
		<g>
			<polygon class="st4" points="299.304,284.252 326.765,153.162 294.599,153.162 274.363,284.252 			"/>
		</g>
		<g>
			<path class="st2" d="M299.304,290.252H138.25c-2.84,0-5.29-1.991-5.872-4.77l-27.462-131.09c-0.371-1.769,0.075-3.61,1.215-5.013
				s2.85-2.217,4.657-2.217h215.977c1.808,0,3.518,0.814,4.657,2.217s1.586,3.244,1.215,5.013l-27.461,131.09
				C304.594,288.261,302.144,290.252,299.304,290.252z M143.123,278.252h151.308l24.947-119.09H118.175L143.123,278.252z"/>
		</g>
	</g>
</g>
</svg>
