<svg width="32" height="32" viewBox="0 0 32 32" fill="none" xmlns="http://www.w3.org/2000/svg">
<path d="M23.3337 4.00008H8.66699C7.16521 3.9162 5.69122 4.42999 4.56702 5.42928C3.44282 6.42857 2.75977 7.83215 2.66699 9.33341V17.3335C2.75977 18.8347 3.44282 20.2383 4.56702 21.2376C5.69122 22.2368 7.16521 22.7507 8.66699 22.6668H23.3337C24.8354 22.7507 26.3094 22.2368 27.4337 21.2376C28.5578 20.2383 29.2409 18.8347 29.3337 17.3335V9.33341C29.2409 7.83215 28.5578 6.42857 27.4337 5.42928C26.3094 4.42999 24.8354 3.9162 23.3337 4.00008Z" stroke="white" stroke-width="2" stroke-linecap="round" stroke-linejoin="round"/>
<path d="M16 22.6666V28" stroke="white" stroke-width="2" stroke-linecap="round" stroke-linejoin="round"/>
<path d="M21.2009 28H10.5342" stroke="white" stroke-width="2" stroke-linecap="round" stroke-linejoin="round"/>
</svg>
