<svg width="32" height="32" viewBox="0 0 32 32" fill="none" xmlns="http://www.w3.org/2000/svg">
<path d="M28.4211 26.1256C28.4016 26.2151 28.407 26.2804 28.3768 26.3137C28.2051 26.5041 28.0286 26.6908 27.8465 26.8711C27.6943 27.0218 27.5283 27.1587 27.375 27.3084C27.3276 27.3548 27.3068 27.4275 27.2638 27.4796C27.2137 27.5402 27.1576 27.5977 27.0951 27.6448C26.9761 27.7343 26.8421 27.8053 26.7302 27.9018C26.5369 28.0683 26.3541 28.2473 26.17 28.4239C26.1159 28.4757 26.0476 28.5302 26.0271 28.5961C25.9549 28.8296 25.6276 28.7129 25.5621 28.9473C25.5584 28.9611 25.5234 28.9746 25.5036 28.9739C25.0412 28.9588 24.6315 29.2737 24.154 29.1828C24.0431 29.162 23.903 29.1465 23.8297 29.3046C23.8126 29.3419 23.7017 29.3456 23.6335 29.348C23.3021 29.3584 22.9701 29.3561 22.6395 29.3726C22.453 29.3816 22.2453 29.3137 22.0947 29.5088C22.0652 29.5471 21.96 29.5323 21.8897 29.5327C21.1951 29.5344 20.5002 29.5391 19.8059 29.5286C19.6947 29.527 19.5851 29.4519 19.4732 29.4173C19.4074 29.3968 19.3378 29.3789 19.2696 29.3769C18.9147 29.3662 18.5592 29.3678 18.2043 29.3507C18.0508 29.3433 17.913 29.3319 17.756 29.2249C17.6045 29.1216 17.3323 29.1936 17.1128 29.1943C17.0974 29.1943 17.0638 29.2484 17.0705 29.2642C17.0829 29.2938 17.1155 29.3298 17.1448 29.3352C17.2295 29.351 17.3205 29.3403 17.4022 29.3638C17.4744 29.3847 17.5383 29.4358 17.6038 29.4768C17.6213 29.4879 17.6347 29.528 17.6445 29.526C17.9291 29.4701 18.1361 29.6861 18.3902 29.7349C18.5316 29.7621 18.7047 29.682 18.7931 29.8866C18.8102 29.9263 18.9544 29.9094 19.0391 29.9229C19.2279 29.9525 19.4484 29.858 19.5932 30.0746C19.6167 30.1096 19.7118 30.1019 19.7743 30.1039C20.0032 30.1123 20.232 30.1123 20.4605 30.1247C20.6091 30.1328 20.7741 30.0834 20.8816 30.2603C20.9065 30.3014 21.0288 30.2906 21.1061 30.2913C21.6982 30.2966 22.2903 30.296 22.8821 30.3061C22.9611 30.3074 23.0394 30.3585 23.1177 30.3865C23.0481 30.4258 22.9785 30.4652 22.909 30.5045C22.8535 30.5362 22.7977 30.5678 22.7423 30.5997C22.6949 30.627 22.6512 30.6643 22.6005 30.6805C22.4997 30.7124 22.3495 30.6482 22.3306 30.8308C22.3293 30.8429 22.2937 30.8581 22.2728 30.8608C22.1253 30.8793 22.0067 30.9348 21.8713 31.0145C21.6337 31.1541 21.3285 31.1763 21.0547 31.2581C20.9707 31.2833 20.8998 31.3502 20.8171 31.3829C20.7408 31.4131 20.6571 31.4256 20.5761 31.4414C20.3953 31.4764 20.1977 31.3943 20.0425 31.6032C19.985 31.6806 19.7558 31.6183 19.61 31.6456C19.5065 31.6651 19.4121 31.7304 19.3116 31.7707C19.2632 31.7902 19.2115 31.8087 19.1604 31.8118C18.9792 31.8219 18.7961 31.8128 18.617 31.8357C18.5212 31.8478 18.4332 31.914 18.3387 31.9487C18.2746 31.9726 18.2057 31.9988 18.1388 31.9988C16.7022 32.0008 15.2659 32.0005 13.8293 31.9961C13.7658 31.9961 13.701 31.9598 13.6391 31.9346C13.5652 31.9043 13.4963 31.8461 13.4214 31.8384C13.2335 31.8192 13.043 31.8262 12.8541 31.8145C12.7197 31.8061 12.5661 31.8474 12.4841 31.6742C12.469 31.6422 12.3702 31.6516 12.3107 31.6385C12.1048 31.5928 11.8494 31.725 11.6985 31.4649C11.6823 31.4374 11.5936 31.4552 11.5392 31.4464C11.391 31.4226 11.2085 31.503 11.1188 31.2897C11.1037 31.2534 10.9719 31.2688 10.895 31.255C10.776 31.2338 10.6157 31.3045 10.5714 31.107C10.567 31.0875 10.4864 31.0862 10.4417 31.0747C10.2898 31.036 10.0848 31.1319 10.0058 30.8978C9.99841 30.8756 9.89861 30.8941 9.84955 30.8742C9.77528 30.8436 9.70807 30.7959 9.63817 30.7548C9.60726 30.7366 9.57836 30.705 9.5461 30.7017C9.41067 30.6875 9.3149 30.6539 9.2003 30.5415C9.06286 30.4066 8.78966 30.4184 8.63071 30.2953C8.4684 30.1691 8.22207 30.192 8.11924 29.9824C8.11286 29.9693 8.09606 29.9485 8.08934 29.9502C7.84637 30.0184 7.74993 29.746 7.54024 29.716C7.42329 29.6992 7.25829 29.6154 7.22301 29.5212C7.15882 29.35 7.03079 29.3823 6.91889 29.3366C6.82547 29.2982 6.74112 29.2276 6.66652 29.1569C6.57242 29.0681 6.49312 28.9632 6.4044 28.8686C6.3802 28.8427 6.34593 28.8162 6.31266 28.8104C6.09927 28.7738 5.97829 28.6261 5.85228 28.4676C5.77431 28.3694 5.64964 28.3092 5.55051 28.2268C5.48296 28.1706 5.42583 28.102 5.35997 28.0441C5.15196 27.8611 4.94058 27.6818 4.73324 27.4981C4.57194 27.3552 4.41265 27.2102 4.25774 27.0605C4.21674 27.0208 4.20095 26.9562 4.16398 26.9108C4.05712 26.7803 3.94723 26.6521 3.83432 26.5266C3.75669 26.4402 3.66529 26.3655 3.59337 26.275C3.51239 26.1734 3.46635 25.9975 3.3689 25.9665C3.21028 25.9157 3.2375 25.8017 3.19045 25.7068C3.14072 25.6073 3.07889 25.5097 3.00462 25.4273C2.91826 25.3314 2.81072 25.255 2.71596 25.1666C2.69042 25.1427 2.66387 25.1074 2.66051 25.0751C2.63665 24.849 2.48845 24.7124 2.32245 24.5866C2.3164 24.5819 2.30901 24.5765 2.30632 24.5698C2.22466 24.3807 2.15308 24.1863 2.05966 24.0033C1.97128 23.8304 1.86106 23.6686 1.75823 23.5031C1.74714 23.4856 1.71387 23.4795 1.70681 23.462C1.63254 23.271 1.61104 23.0254 1.47695 22.8996C1.30221 22.7358 1.40403 22.4515 1.17149 22.3432C1.15099 22.3338 1.13654 22.2937 1.13419 22.2665C1.12175 22.1249 1.14897 21.9664 0.960788 21.9109C0.997753 21.6418 0.829058 21.4342 0.751767 21.1984C0.707409 21.0632 0.804526 20.8735 0.58576 20.8069C0.566606 20.8011 0.572991 20.7187 0.563245 20.673C0.529305 20.5115 0.607267 20.3332 0.410344 20.1946C0.332718 20.1401 0.380436 19.912 0.36397 19.7637C0.351872 19.6554 0.399927 19.5245 0.240641 19.4656C0.207036 19.4532 0.194603 19.355 0.190906 19.2951C0.179144 19.0983 0.189898 18.8988 0.163686 18.7044C0.147556 18.5843 0.0776585 18.4719 0.037669 18.3542C0.0181783 18.2967 0.00171207 18.2344 0.00137603 18.1745C-0.000640252 16.722 -0.000640252 15.2698 0.00272021 13.8172C0.00272021 13.7536 0.0380051 13.689 0.0622004 13.6268C0.0941248 13.5444 0.152933 13.4667 0.162342 13.3826C0.182505 13.2026 0.172424 13.0199 0.185865 12.8389C0.195611 12.7071 0.14386 12.5537 0.324652 12.4716C0.363298 12.4541 0.349856 12.3273 0.364978 12.2519C0.403287 12.0612 0.276934 11.8203 0.533673 11.6928C0.549131 11.6851 0.541738 11.6336 0.547451 11.6027C0.579375 11.4251 0.492676 11.2064 0.721523 11.0967C0.652634 10.7836 0.935584 10.5639 0.943313 10.2668C0.94533 10.1871 1.02396 10.1091 1.06899 10.0314C1.07572 10.0196 1.0989 10.0156 1.10327 10.0041C1.17552 9.80228 1.23399 9.59439 1.32002 9.3986C1.40235 9.21056 1.51224 9.03462 1.61104 8.85398C1.62179 8.83413 1.64733 8.82135 1.6554 8.80116C1.73403 8.60336 1.75688 8.33458 1.90105 8.2239C2.08016 8.08632 1.97934 7.80778 2.21726 7.74252C2.23575 7.73747 2.25289 7.69206 2.25356 7.66481C2.25893 7.42765 2.43099 7.30587 2.58759 7.17232C2.60842 7.1545 2.62859 7.12355 2.62993 7.09764C2.64404 6.85645 2.82316 6.74275 2.97875 6.59507C3.093 6.48675 3.13702 6.30711 3.22372 6.1665C3.28824 6.06188 3.36486 5.96264 3.44753 5.87114C3.61454 5.68646 3.79097 5.51018 3.96034 5.32786C4.14415 5.13005 4.32562 4.9299 4.50641 4.7294C4.65528 4.5639 4.79138 4.38561 4.95234 4.23322C5.06828 4.12355 5.22118 4.05425 5.34686 3.95401C5.46213 3.86183 5.56328 3.75251 5.6698 3.64957C5.73768 3.58397 5.79716 3.50727 5.8721 3.45177C5.99409 3.36128 6.12615 3.28357 6.25385 3.20048C6.37248 3.12344 6.50992 3.06457 6.60603 2.96567C6.74885 2.81833 6.86109 2.65619 7.09296 2.6212C7.19579 2.60573 7.34466 2.51254 7.36852 2.42609C7.43438 2.18691 7.78084 2.34872 7.80874 2.08734C7.80974 2.07926 7.88334 2.0833 7.92131 2.07422C8.01104 2.05269 8.14176 2.09003 8.14041 1.92856C8.14041 1.91779 8.15688 1.90131 8.16898 1.8966C8.35851 1.82259 8.60181 1.79938 8.7248 1.66549C8.88644 1.48922 9.17309 1.58812 9.27793 1.3513C9.28801 1.32876 9.34413 1.32371 9.38043 1.31665C9.49401 1.29478 9.64523 1.34457 9.66875 1.15484C9.67043 1.14206 9.73899 1.13668 9.77662 1.12928C9.88819 1.1064 10.0293 1.16123 10.0804 0.983616C10.0905 0.948967 10.2226 0.949304 10.2988 0.934502C10.4181 0.910954 10.5734 0.977561 10.6255 0.784469C10.6332 0.755539 10.7542 0.75823 10.8224 0.744437C10.9548 0.717526 11.1366 0.805998 11.1887 0.588013C11.1907 0.579266 11.2156 0.573211 11.2304 0.570183C11.5577 0.501222 11.8843 0.428896 12.2126 0.365654C12.336 0.342106 12.4768 0.393575 12.5571 0.232777C12.5766 0.193754 12.6861 0.190727 12.755 0.18669C12.9519 0.175589 13.1509 0.185345 13.3458 0.161797C13.4503 0.149014 13.5474 0.0820704 13.6496 0.0447303C13.7063 0.02421 13.7668 0.00133498 13.8256 0.00133498C15.278 -0.000683401 16.7301 -0.0010198 18.1825 0.00469896C18.248 0.00469896 18.3122 0.0645777 18.3787 0.0931716C18.4402 0.119411 18.5027 0.156078 18.5669 0.161124C18.7396 0.174916 18.9154 0.161797 19.0868 0.184335C19.1815 0.196782 19.2682 0.263052 19.3613 0.297029C19.4332 0.323268 19.5092 0.340087 19.5845 0.356571C19.8284 0.410058 20.1201 0.263052 20.3154 0.538226C20.3386 0.570856 20.4363 0.546636 20.4985 0.556055C20.6329 0.575902 20.8043 0.498194 20.8709 0.707097C20.8796 0.734682 20.9865 0.730309 21.0476 0.742083C21.1874 0.768658 21.3699 0.684559 21.4401 0.900862C21.4478 0.924747 21.5423 0.917682 21.595 0.930465C21.7328 0.963769 21.9254 0.868905 21.9838 1.09799C21.9882 1.11548 22.0715 1.1101 22.1166 1.12087C22.212 1.14341 22.3535 1.08554 22.3656 1.26014C22.3663 1.27157 22.3837 1.28705 22.3965 1.29176C22.5944 1.36341 22.7998 1.41959 22.99 1.50772C23.1718 1.59216 23.3384 1.70923 23.5112 1.81317C23.5236 1.82057 23.528 1.84278 23.5404 1.84782C23.7306 1.9262 23.9265 1.99247 24.1107 2.08296C24.28 2.16639 24.4383 2.27303 24.5989 2.37361C24.7448 2.46444 24.8913 2.55493 25.0301 2.65619C25.1534 2.746 25.264 2.85264 25.3846 2.94683C25.4979 3.03497 25.6141 3.11974 25.7334 3.19947C25.8621 3.28559 26.0066 3.35152 26.1243 3.44975C26.3202 3.6129 26.5016 3.79355 26.6855 3.97083C26.7362 4.01994 26.7661 4.09092 26.8179 4.13835C27.1203 4.41353 27.5246 4.58038 27.6889 5.00424C27.7312 5.11357 27.8667 5.18556 27.9557 5.27841C28.0495 5.3763 28.1385 5.47856 28.2299 5.57881C28.3166 5.67435 28.4016 5.77123 28.491 5.86407C28.5818 5.95827 28.6923 6.03732 28.7656 6.14328C28.856 6.27414 28.9054 6.43326 28.9941 6.56546C29.0616 6.66638 29.1665 6.74174 29.2478 6.83425C29.2912 6.8837 29.3201 6.94559 29.355 7.00211C29.4676 7.18612 29.6094 7.35903 29.683 7.5575C29.7462 7.72805 29.9243 7.80341 29.9542 8.01265C29.9794 8.18959 30.1504 8.34602 30.258 8.51119C30.2654 8.52296 30.2869 8.527 30.2912 8.53877C30.3648 8.73287 30.4361 8.92832 30.51 9.12242C30.5278 9.16885 30.5527 9.21258 30.5765 9.25631C30.6122 9.32123 30.6491 9.38515 30.6868 9.44873C30.7281 9.51903 30.7701 9.58867 30.8131 9.65797C30.8282 9.68219 30.8592 9.70271 30.8625 9.7276C30.8823 9.87528 30.9351 9.99403 31.0151 10.1306C31.1545 10.3684 31.1774 10.6736 31.2594 10.9474C31.2846 11.0315 31.3515 11.1025 31.3841 11.1855C31.4143 11.2619 31.4271 11.3457 31.4422 11.4271C31.4758 11.6084 31.3962 11.8072 31.6048 11.9603C31.6781 12.0138 31.6183 12.2321 31.6458 12.37C31.668 12.481 31.7322 12.5829 31.7739 12.6906C31.7927 12.7394 31.8102 12.7912 31.8132 12.8426C31.8229 13.0159 31.8125 13.1915 31.836 13.3624C31.8502 13.4663 31.916 13.5629 31.9516 13.6648C31.9745 13.7297 31.9983 13.799 31.9983 13.8663C32.0007 15.2872 32.0014 16.7082 31.9947 18.1288C31.9943 18.2095 31.9278 18.2893 31.8948 18.3707C31.8727 18.4258 31.8424 18.482 31.8387 18.5392C31.826 18.7279 31.833 18.9187 31.8122 19.1064C31.8031 19.1868 31.7376 19.2594 31.7097 19.3395C31.6798 19.4246 31.6633 19.5144 31.6425 19.6026C31.5991 19.7856 31.7218 20.0136 31.4832 20.1489C31.4459 20.1701 31.4553 20.2817 31.4513 20.3521C31.4311 20.6874 31.3394 20.7894 31.0033 20.8452C30.966 20.8513 30.9012 20.8587 30.8978 20.8758C30.8551 21.075 30.6921 20.9993 30.5745 21.0238C30.4687 21.0457 30.3248 20.9936 30.2983 21.1688C30.2966 21.1796 30.2738 21.1971 30.265 21.1951C29.9579 21.1207 29.7394 21.3791 29.4588 21.411C29.3641 21.4218 29.2757 21.4928 29.1853 21.5379C29.1594 21.551 29.1376 21.5826 29.1124 21.5843C28.9622 21.594 28.854 21.6482 28.7209 21.7427C28.523 21.8833 28.2387 21.9002 27.9937 21.9775C27.9308 21.9974 27.8767 22.0448 27.8199 22.0818C27.8015 22.0939 27.7853 22.1306 27.7729 22.1286C27.491 22.0811 27.2833 22.2779 27.0487 22.3671C26.8313 22.4495 26.6072 22.5151 26.3988 22.6026C26.2967 22.6453 26.1438 22.6793 26.0806 22.7482C25.9253 22.9174 25.6531 22.8407 25.5352 23.0486C25.5281 23.0611 25.513 23.0728 25.4992 23.0772C25.2623 23.1539 25.0237 23.2259 24.7885 23.308C24.7273 23.3295 24.6772 23.383 24.6218 23.421C24.5926 23.4412 24.5637 23.4721 24.5317 23.4768C24.4014 23.4957 24.3032 23.5162 24.1866 23.6306C24.0441 23.7699 23.7891 23.7968 23.5797 23.8634C23.4718 23.8977 23.3126 23.8277 23.289 24.0188C23.2884 24.0245 23.2796 24.0316 23.2732 24.0336C23.0548 24.1049 22.8347 24.1718 22.618 24.2489C22.5262 24.2815 22.4415 24.3347 22.3548 24.3801C22.3431 24.3865 22.339 24.4104 22.3276 24.4144C22.1142 24.4847 21.9015 24.5584 21.6858 24.6206C21.5698 24.6539 21.4062 24.5738 21.3642 24.7686C21.3622 24.7784 21.3393 24.7871 21.3248 24.7905C21.014 24.8631 20.7038 24.9372 20.392 25.0054C20.2707 25.032 20.1228 24.9708 20.0543 25.1491C20.0401 25.1858 19.9118 25.1777 19.8362 25.1911C19.6429 25.2254 19.4168 25.1218 19.2662 25.3529C19.235 25.401 19.0858 25.365 18.9934 25.3815C18.7675 25.4219 18.5011 25.2931 18.3226 25.5467C18.3021 25.576 18.2178 25.5625 18.1627 25.5642C17.8945 25.5723 17.6253 25.5679 17.3585 25.5911C17.2459 25.6009 17.1397 25.6715 17.0285 25.7088C16.971 25.7284 16.9092 25.7462 16.8494 25.7465C15.8628 25.7482 14.8758 25.7502 13.8892 25.7415C13.8025 25.7408 13.7178 25.6641 13.6297 25.6291C13.5743 25.6073 13.5145 25.5871 13.4557 25.584C13.2587 25.574 13.0605 25.58 12.8642 25.5639C12.7211 25.5524 12.5715 25.6069 12.4505 25.4266C12.3988 25.3496 12.1693 25.396 12.0214 25.3778C11.9072 25.3637 11.7596 25.4243 11.7059 25.2483C11.6991 25.2268 11.6397 25.2157 11.6027 25.21C11.4128 25.1797 11.2394 25.1693 11.0512 25.0505C10.8113 24.8991 10.4864 24.8837 10.1997 24.8033C10.1419 24.7871 10.0902 24.7451 10.0391 24.7097C10.0229 24.6986 10.0149 24.6516 10.0092 24.6526C9.76957 24.6997 9.64153 24.4595 9.43083 24.4278C9.37102 24.4188 9.31926 24.3582 9.26348 24.3222C9.2282 24.2993 9.19392 24.2704 9.15494 24.2583C9.04841 24.2257 8.89652 24.2886 8.8656 24.0938C8.86157 24.0692 8.66565 24.0723 8.55879 24.0729C8.55039 24.0729 8.52115 24.1789 8.53729 24.1924C8.63776 24.2758 8.74597 24.3508 8.85653 24.4204C8.99229 24.5059 9.1919 24.552 9.25542 24.6727C9.31893 24.7925 9.39891 24.7804 9.47754 24.8248C9.60591 24.8968 9.72218 24.9903 9.84383 25.0747C9.89827 25.1124 9.95204 25.1511 10.0078 25.1868C10.1476 25.2759 10.2881 25.3637 10.4282 25.4522C10.488 25.4899 10.5485 25.5269 10.6073 25.5662C10.6739 25.6106 10.7384 25.6577 10.8043 25.7028C10.8281 25.7193 10.852 25.7428 10.8782 25.7469C11.0079 25.767 11.1077 25.7788 11.2189 25.9083C11.3369 26.0456 11.5869 26.0674 11.7768 26.1455C11.8319 26.1684 11.8809 26.2084 11.9293 26.2451C11.9458 26.2575 11.9475 26.2955 11.9633 26.3009C12.1746 26.3749 12.386 26.4496 12.6001 26.5149C12.7043 26.5465 12.8471 26.4927 12.8797 26.6646C12.883 26.6824 12.9439 26.6962 12.9791 26.7005C13.1042 26.716 13.2483 26.6807 13.3007 26.8583C13.3078 26.8819 13.4012 26.8802 13.4546 26.8899C13.6025 26.9165 13.7843 26.8391 13.8724 27.0511C13.8871 27.0871 14.0192 27.0719 14.0962 27.0851C14.2158 27.1052 14.3687 27.0396 14.4245 27.2321C14.4336 27.264 14.5686 27.258 14.6449 27.2724C14.8311 27.3074 15.0499 27.2065 15.1934 27.4363C15.2253 27.4874 15.3883 27.45 15.4887 27.4659C15.6416 27.4897 15.8261 27.4174 15.9263 27.6199C15.9434 27.6546 16.0577 27.6391 16.1266 27.6505C16.3917 27.6946 16.6941 27.5604 16.9166 27.8221C16.9415 27.8514 17.0228 27.8349 17.0779 27.8362C17.3145 27.8419 17.5517 27.8419 17.788 27.853C17.9459 27.8608 18.119 27.8174 18.2373 27.9879C18.2615 28.0229 18.3555 28.0175 18.4174 28.0175C19.4675 28.0192 20.5173 28.0212 21.5675 28.0149C21.6485 28.0145 21.7274 27.9472 21.8101 27.9183C21.882 27.8931 21.957 27.8648 22.0316 27.8615C22.3152 27.8487 22.6001 27.8527 22.8834 27.8356C23.038 27.8261 23.1973 27.8662 23.3304 27.6946C23.3885 27.6199 23.5999 27.6717 23.7393 27.6505C23.9205 27.6226 24.1241 27.7138 24.275 27.4968C24.3231 27.4278 24.5321 27.4837 24.6611 27.4541C24.7794 27.4272 24.8869 27.3569 25.0029 27.3168C25.0741 27.2923 25.1528 27.2892 25.2277 27.2744C25.3598 27.2482 25.5382 27.338 25.5983 27.1221C25.6041 27.1019 25.6847 27.1036 25.7304 27.0938C25.8907 27.0595 26.0933 27.151 26.1918 26.9236C26.2059 26.891 26.3249 26.9058 26.3944 26.8946C26.5158 26.8755 26.673 26.935 26.7197 26.7426C26.7244 26.7231 26.8034 26.7224 26.8478 26.7116C26.9499 26.6868 27.0995 26.7517 27.1193 26.5683C27.1203 26.5583 27.1421 26.5472 27.1566 26.5428C27.4019 26.4671 27.6472 26.3921 27.8932 26.3174C27.9298 26.3063 27.9964 26.3056 28.0004 26.2885C28.0589 26.0489 28.2427 26.164 28.4238 26.1283L28.4211 26.1256ZM10.7948 17.2232C10.7962 17.3235 10.7928 17.4244 10.8016 17.5243C10.8043 17.5536 10.8365 17.5966 10.8624 17.6027C10.8906 17.6094 10.9414 17.5902 10.9578 17.566C11.0297 17.4587 10.9283 17.2616 10.7895 17.2286C10.7895 16.3055 10.7727 15.3818 10.7995 14.4597C10.809 14.1358 10.9252 13.8152 10.9938 13.4932C10.9968 13.4794 11.0082 13.4579 11.0183 13.4566C11.2075 13.4266 11.1343 13.2685 11.1685 13.1605C11.2357 12.9483 11.313 12.7394 11.388 12.5298C11.392 12.5187 11.4165 12.5163 11.4243 12.5049C11.4656 12.444 11.5036 12.3811 11.5442 12.3195C11.5893 12.2516 11.634 12.1833 11.6813 12.1174C11.7549 12.0151 11.885 11.9199 11.8954 11.8123C11.9246 11.5034 12.215 11.3965 12.3491 11.1691C12.4452 11.0062 12.6643 10.9168 12.7086 10.6941C12.715 10.6621 12.7748 10.6416 12.8088 10.6147C12.9533 10.4986 13.0968 10.3816 13.2419 10.2658C13.3431 10.1851 13.4694 10.1239 13.543 10.0233C13.6502 9.8773 13.8277 9.881 13.9416 9.79589C14.1274 9.65662 14.2568 9.44435 14.5273 9.44772C14.5438 9.44772 14.5589 9.41879 14.577 9.40701C14.652 9.35958 14.7252 9.30845 14.8045 9.2701C14.8445 9.25059 14.9326 9.26606 14.9376 9.24823C15.0035 9.01545 15.2038 9.11468 15.3463 9.07163C15.4108 9.05211 15.4679 9.00737 15.5281 8.97407C15.5711 8.95019 15.6114 8.91251 15.6571 8.90376C15.8903 8.85936 16.1632 8.96432 16.3436 8.71639C16.3554 8.70024 16.4041 8.71 16.4357 8.71C17.3276 8.71 18.2191 8.70966 19.111 8.71235C19.1711 8.71235 19.2756 8.72278 19.284 8.75104C19.3381 8.92866 19.4843 8.86205 19.5962 8.8893C19.8701 8.9559 20.1426 9.02789 20.4152 9.09887C20.4276 9.10224 20.4454 9.11738 20.4464 9.12814C20.4619 9.29735 20.602 9.24622 20.6978 9.27178C20.7415 9.28322 20.8215 9.28692 20.8241 9.3034C20.851 9.4753 20.9891 9.43763 21.0967 9.46387C21.1407 9.47463 21.1793 9.51029 21.2177 9.53821C21.261 9.56949 21.2966 9.61794 21.344 9.6361C21.4421 9.67378 21.5671 9.62567 21.6098 9.8006C21.6313 9.88806 21.7879 10.0061 21.8773 10.0011C22.0954 9.98865 22.1818 10.1713 22.3155 10.2601C22.494 10.3782 22.5928 10.61 22.7574 10.758C22.9832 10.9612 23.2386 11.126 23.3354 11.4429C23.367 11.5462 23.4601 11.6363 23.5404 11.7174C23.6799 11.858 23.86 11.9663 23.8704 12.1961C23.8721 12.2304 23.8936 12.2923 23.9094 12.2936C24.0814 12.3054 24.0317 12.4443 24.0586 12.5395C24.072 12.588 24.0882 12.6368 24.1113 12.6812C24.1527 12.7599 24.2337 12.8332 24.2387 12.9126C24.2579 13.2029 24.4195 13.4525 24.5008 13.7183C24.5623 13.9191 24.5963 14.1173 24.6305 14.3204C24.6443 14.4025 24.6561 14.4866 24.6833 14.5647C24.7139 14.6528 24.7942 14.7349 24.7955 14.8203C24.8046 15.412 24.7996 16.0041 24.7962 16.5962C24.7959 16.6581 24.7999 16.7526 24.7643 16.7765C24.5643 16.9114 24.6416 17.1132 24.6275 17.2898C24.6238 17.3336 24.6783 17.3817 24.7058 17.4281C24.7394 17.3881 24.7855 17.3527 24.8043 17.3066C24.8332 17.236 24.8278 17.1024 24.8644 17.0917C25.0291 17.0443 24.9851 16.9141 25.0072 16.8091C25.0153 16.7711 25.0136 16.7042 25.0304 16.6994C25.2495 16.6372 25.1696 16.4556 25.1921 16.3146C25.2018 16.2534 25.2021 16.1498 25.2324 16.139C25.4387 16.0674 25.3547 15.8961 25.3776 15.7629C25.3997 15.6331 25.4108 15.5005 25.4444 15.374C25.4676 15.2862 25.555 15.2065 25.5557 15.1227C25.5627 14.1993 25.559 13.2759 25.5567 12.3525C25.5567 12.2977 25.5664 12.2106 25.5379 12.1927C25.2875 12.037 25.4159 11.785 25.3692 11.5791C25.3544 11.5135 25.3312 11.4483 25.303 11.3871C25.2714 11.3188 25.2169 11.2592 25.1941 11.1892C25.1165 10.9514 25.0496 10.7099 24.974 10.4714C24.9669 10.4492 24.9226 10.4418 24.9021 10.4206C24.8695 10.3866 24.8332 10.3513 24.8147 10.3092C24.7293 10.1128 24.6504 9.91329 24.566 9.7165C24.5583 9.69867 24.5223 9.6943 24.5106 9.67613C24.4148 9.53249 24.3227 9.38683 24.228 9.24252C24.1537 9.12982 24.0845 9.01276 24.0001 8.90814C23.9376 8.83043 23.8526 8.77055 23.7803 8.70024C23.6832 8.60571 23.5858 8.51152 23.4934 8.41262C23.4087 8.32213 23.3401 8.21516 23.248 8.13341C23.0847 7.98876 22.8858 7.87809 22.7457 7.71561C22.6048 7.55245 22.4893 7.38224 22.2537 7.35734C22.2281 7.35465 22.2016 7.32909 22.1824 7.30789C22.051 7.16324 21.9344 6.99908 21.7113 6.98798C21.6757 6.9863 21.6155 6.97082 21.6102 6.94997C21.545 6.7054 21.2029 6.86822 21.1404 6.62635C20.8651 6.6388 20.6628 6.42889 20.396 6.37473C20.2122 6.33739 20.0146 6.24017 19.8063 6.22335C19.7834 6.22167 19.7468 6.21864 19.7407 6.20552C19.6278 5.95591 19.401 6.08307 19.2249 6.05145C19.0791 6.02521 18.8643 6.08038 18.7941 5.99998C18.6674 5.85466 18.5347 5.87618 18.3942 5.8745C17.9523 5.86946 17.5101 5.87215 17.0682 5.87383C17.0056 5.87383 16.9058 5.8634 16.887 5.89536C16.7657 6.10191 16.557 6.06423 16.3994 6.03665C15.9713 5.96129 15.6326 6.295 15.2202 6.25766C15.2021 6.25598 15.1668 6.27683 15.1651 6.29029C15.144 6.45512 15.0082 6.40332 14.9117 6.43259C14.6893 6.49953 14.4248 6.52476 14.2642 6.66571C14.1489 6.76697 14.0542 6.80431 13.9238 6.82886C13.8898 6.83525 13.8666 6.88807 13.8337 6.91397C13.7211 7.00244 13.6133 7.10034 13.4906 7.17132C13.4026 7.22245 13.2655 7.16122 13.2332 7.34153C13.2184 7.42429 13.0766 7.54034 12.9892 7.54337C12.6656 7.55447 12.5641 7.86396 12.3333 7.99919C12.1528 8.10482 12.0671 8.36149 11.8984 8.5021C11.7297 8.64306 11.554 8.75508 11.5301 8.99728C11.5274 9.02419 11.4814 9.04539 11.4585 9.07196C11.3476 9.19979 11.1773 9.28322 11.1584 9.47934C11.1547 9.51803 11.1561 9.57118 11.1326 9.59203C10.9528 9.74846 10.7717 9.90085 10.778 10.1713C10.7784 10.1871 10.7478 10.2019 10.7364 10.2201C10.6893 10.2948 10.6389 10.3684 10.6006 10.4475C10.5811 10.4875 10.5949 10.5757 10.5778 10.58C10.3395 10.6423 10.4417 10.8441 10.4044 10.9867C10.3926 11.0318 10.4007 11.1119 10.3788 11.12C10.154 11.2051 10.2478 11.4035 10.2135 11.5556C10.2004 11.6138 10.1873 11.673 10.1644 11.7275C10.1261 11.8186 10.0559 11.9027 10.0424 11.9963C10.0179 12.1672 10.028 12.3428 10.0176 12.516C10.0145 12.5678 9.99673 12.6203 9.97691 12.6691C9.93893 12.7629 9.86097 12.8537 9.85929 12.9469C9.84921 13.5228 9.85526 14.0994 9.85761 14.6757C9.85761 14.7382 9.84585 14.8301 9.8808 14.8587C10.1019 15.041 10.0014 15.2909 10.035 15.5116C10.0455 15.5792 10.0498 15.6495 10.0734 15.7125C10.1137 15.8204 10.1795 15.92 10.2125 16.0297C10.2904 16.2894 10.355 16.5534 10.4265 16.8152C10.4299 16.8279 10.4443 16.8458 10.4551 16.8468C10.6221 16.8623 10.5946 16.9995 10.5972 17.0977C10.6016 17.2548 10.6745 17.2669 10.7945 17.2232H10.7948ZM20.4683 23.5011C20.2014 23.5021 19.9346 23.5011 19.6678 23.5068C19.6251 23.5078 19.5835 23.5408 19.5411 23.5583C19.4544 23.5946 19.3681 23.6609 19.2814 23.6619C18.366 23.6693 17.4506 23.6666 16.5348 23.6656C16.472 23.6656 16.3772 23.6817 16.351 23.6484C16.1531 23.3951 15.8725 23.5276 15.6322 23.4795C15.5486 23.4627 15.4098 23.4738 15.3899 23.4298C15.318 23.271 15.189 23.2979 15.0724 23.2986C14.7824 23.3002 14.576 23.0089 14.2692 23.0749C14.2578 23.0772 14.241 23.0405 14.2229 23.0281C14.1667 22.9904 14.1123 22.9467 14.0508 22.9215C13.8599 22.8431 13.6657 22.7721 13.4735 22.6967C13.4624 22.6924 13.4607 22.6675 13.4496 22.6597C13.3888 22.618 13.3259 22.5797 13.2648 22.5383C13.1976 22.4925 13.1334 22.4418 13.0645 22.3987C12.9328 22.3166 12.798 22.2399 12.6663 22.1575C12.6051 22.1191 12.549 22.0724 12.4892 22.0317C12.3645 21.9466 12.2372 21.8652 12.1142 21.7774C11.9865 21.6862 11.8557 21.5974 11.7391 21.4928C11.5735 21.3444 11.4192 21.183 11.2609 21.0265C11.1023 20.8698 10.9434 20.7133 10.7871 20.5549C10.6923 20.459 10.5983 20.3618 10.5109 20.2595C10.4131 20.1452 10.315 20.0291 10.232 19.904C10.1829 19.83 10.2239 19.7237 10.076 19.6813C9.97892 19.6534 9.91541 19.4878 9.84921 19.3765C9.76385 19.2325 9.72756 19.0283 9.60524 18.9449C9.40899 18.8113 9.40193 18.5866 9.30952 18.4218C9.19459 18.2166 8.99364 17.9963 9.05412 17.7107C8.87367 17.6215 8.89484 17.4506 8.88274 17.2925C8.88106 17.2723 8.86627 17.2394 8.85216 17.2363C8.67103 17.1973 8.7201 17.0486 8.70665 16.9326C8.69254 16.8074 8.73656 16.6227 8.66935 16.5659C8.41396 16.3506 8.55442 16.0727 8.50368 15.8288C8.48621 15.7454 8.50368 15.6152 8.45563 15.5846C8.30877 15.4908 8.33364 15.3586 8.33263 15.2311C8.32793 14.6074 8.3165 13.9837 8.33162 13.3604C8.33801 13.102 8.23283 12.8114 8.48486 12.5934C8.51511 12.5671 8.50133 12.4877 8.50402 12.4326C8.51175 12.2593 8.51511 12.0854 8.52485 11.9122C8.52788 11.859 8.53392 11.7689 8.5598 11.7605C8.74463 11.7009 8.67305 11.5455 8.70262 11.4264C8.76815 11.1603 8.84208 10.8962 8.91299 10.6312C8.915 10.6238 8.91836 10.6113 8.92273 10.6103C9.13242 10.5723 9.06017 10.3997 9.08605 10.2729C9.09848 10.212 9.10756 10.1457 9.13847 10.0939C9.23996 9.92439 9.35052 9.76057 9.45839 9.59472C9.51585 9.50625 9.58676 9.42383 9.63044 9.32897C9.71647 9.14261 9.7867 8.94918 9.86635 8.75979C9.87374 8.74196 9.90197 8.73355 9.91877 8.71875C10.0159 8.6333 10.1204 8.55458 10.2068 8.45938C10.2804 8.37797 10.3361 8.27941 10.3943 8.18522C10.479 8.04864 10.5388 7.88986 10.646 7.77515C10.7925 7.61872 10.977 7.49829 11.1386 7.35499C11.2196 7.283 11.2872 7.19554 11.3587 7.11346C11.4437 7.01624 11.5214 6.91162 11.6124 6.82045C11.684 6.7488 11.7637 6.65595 11.8531 6.63712C12.0681 6.5917 12.1814 6.44133 12.3158 6.29466C12.4069 6.19543 12.5352 6.12411 12.6575 6.0612C12.8333 5.97071 13.0188 5.8994 13.1996 5.81832C13.2117 5.81294 13.2154 5.78973 13.2275 5.78233C13.3962 5.68107 13.5588 5.56603 13.7366 5.48428C13.9318 5.3948 14.1415 5.3366 14.3445 5.2636C14.3569 5.25923 14.363 5.23871 14.3754 5.23097C14.4446 5.18758 14.5142 5.11054 14.5848 5.1092C14.8983 5.10382 15.1379 4.80745 15.4709 4.89222C15.4837 4.89559 15.5029 4.86195 15.5223 4.85185C15.6033 4.80879 15.6826 4.74353 15.7683 4.7321C15.9394 4.70922 16.1148 4.71931 16.2882 4.70888C16.3473 4.70518 16.4075 4.68668 16.4633 4.66515C16.5577 4.62849 16.6488 4.54977 16.7422 4.54876C17.5235 4.53934 18.3048 4.5427 19.0861 4.54573C19.154 4.54573 19.2239 4.56558 19.2887 4.58845C19.3906 4.62445 19.4853 4.69173 19.5888 4.70754C19.7515 4.7321 19.9195 4.72099 20.0845 4.73344C20.1423 4.73781 20.1994 4.76372 20.2542 4.78626C20.3456 4.8236 20.4326 4.87506 20.5267 4.90063C20.5583 4.90904 20.6067 4.85656 20.6474 4.83201C20.6161 4.79769 20.5916 4.75026 20.5526 4.73075C20.3967 4.65338 20.1759 4.62579 20.0926 4.50301C19.9807 4.3375 19.8496 4.36408 19.7115 4.33952C19.6584 4.3301 19.5677 4.32337 19.5603 4.2968C19.5129 4.12692 19.3744 4.16493 19.2592 4.14676C19.2212 4.14071 19.154 4.13634 19.1506 4.12019C19.1053 3.90927 18.9332 3.99068 18.8085 3.96679C18.7393 3.95367 18.6214 3.96814 18.6069 3.9345C18.5068 3.70306 18.3025 3.80599 18.1428 3.77303C18.0662 3.75722 17.9486 3.78648 17.9143 3.74342C17.7214 3.50256 17.4553 3.62266 17.2241 3.57859C17.1592 3.56614 17.0954 3.54461 17.0339 3.52039C16.9522 3.4881 16.8736 3.41779 16.7929 3.41712C15.8695 3.40803 14.9464 3.40837 14.0229 3.41005C13.9577 3.41005 13.8902 3.43696 13.8273 3.46085C13.7393 3.49449 13.6569 3.56143 13.5676 3.57119C13.3643 3.59339 13.1579 3.58599 12.9529 3.59743C12.884 3.60113 12.7755 3.60449 12.7547 3.64452C12.6673 3.81171 12.5164 3.7515 12.3874 3.78076C12.1229 3.84098 11.8615 3.91599 11.5997 3.98765C11.5815 3.99269 11.5725 4.02331 11.5546 4.03575C11.4989 4.07511 11.4454 4.1249 11.3829 4.14643C11.1474 4.22683 10.9057 4.29074 10.6722 4.37652C10.5993 4.4031 10.5442 4.52521 10.4816 4.52454C10.2622 4.52286 10.1745 4.72032 10.0122 4.80106C9.84988 4.88179 9.70605 5.07118 9.55013 5.07556C9.33136 5.08128 9.22887 5.24443 9.1173 5.33627C8.94693 5.47654 8.82494 5.66526 8.57895 5.68915C8.56215 5.69083 8.54636 5.71673 8.53224 5.73322C8.38976 5.89637 8.25635 6.06827 8.10278 6.21998C8.01204 6.3098 7.88267 6.35925 7.78454 6.44301C7.70187 6.51366 7.64239 6.61054 7.56645 6.68993C7.4038 6.85981 7.23343 7.02195 7.07414 7.19486C6.9824 7.29477 6.89973 7.40478 6.82513 7.51814C6.73641 7.65304 6.68298 7.81821 6.57343 7.93023C6.4286 8.07824 6.24175 8.18555 6.23738 8.42642C6.23705 8.45333 6.22125 8.49033 6.20008 8.50446C6.0035 8.63969 5.96452 8.87181 5.86941 9.06389C5.78339 9.23747 5.6204 9.3801 5.62881 9.60246C5.63015 9.64148 5.49808 9.68286 5.49708 9.72491C5.49136 9.99941 5.20673 10.1878 5.27159 10.4791C5.05215 10.6123 5.12608 10.8451 5.08139 11.0375C5.07601 11.0601 5.07063 11.0944 5.05551 11.1008C4.87169 11.1808 4.93117 11.3463 4.9174 11.4853C4.91034 11.5559 4.93386 11.6639 4.8969 11.6915C4.63276 11.8859 4.76248 12.1648 4.73022 12.4057C4.70501 12.5927 4.77424 12.8363 4.6788 12.9597C4.50809 13.1807 4.55816 13.4034 4.55279 13.6268C4.5417 14.1078 4.55178 14.5896 4.55648 15.0713C4.55715 15.1406 4.55379 15.2479 4.59277 15.2718C4.75912 15.3734 4.71375 15.5291 4.72114 15.6707C4.73089 15.8598 4.72955 16.0495 4.73761 16.2386C4.7403 16.3001 4.74064 16.4017 4.77256 16.4159C4.97217 16.5043 4.88715 16.6806 4.91908 16.8216C4.98696 17.1193 5.06324 17.415 5.13683 17.7113C5.14053 17.7258 5.15061 17.747 5.16136 17.7497C5.322 17.788 5.2857 17.9226 5.30082 18.0316C5.30721 18.0777 5.29982 18.1527 5.32401 18.1648C5.60327 18.3044 5.46549 18.6381 5.65233 18.851C5.7686 18.9836 5.86337 19.1901 5.98199 19.3577C6.0828 19.5003 6.15976 19.6618 6.23335 19.8212C6.27704 19.9161 6.22125 20.0479 6.39869 20.0856C6.48236 20.1035 6.59494 20.2407 6.59998 20.3292C6.61779 20.6454 6.90914 20.7675 7.04356 20.9996C7.14975 21.183 7.38431 21.2876 7.54124 21.4474C7.6965 21.6051 7.81243 21.8019 7.97071 21.9563C8.13101 22.1128 8.34742 22.216 8.49259 22.3829C8.63978 22.5524 8.76311 22.7253 9.00641 22.7492C9.02489 22.7509 9.04472 22.7728 9.05816 22.7899C9.18149 22.9433 9.29675 23.1061 9.51888 23.125C9.54811 23.1273 9.58273 23.1405 9.60289 23.1603C9.75949 23.3127 9.89424 23.4967 10.1459 23.4984C10.1681 23.4984 10.1886 23.5347 10.2125 23.5505C10.273 23.5916 10.3311 23.6551 10.397 23.6659C10.6006 23.6985 10.7172 23.9391 10.9508 23.892C10.9555 23.891 10.9625 23.9206 10.974 23.9283C11.0351 23.9693 11.0936 24.0181 11.1611 24.0447C11.2176 24.0669 11.3281 24.044 11.3402 24.0726C11.4333 24.2923 11.6313 24.2146 11.7889 24.2482C11.8326 24.2576 11.9092 24.2644 11.9135 24.2845C11.9539 24.4702 12.1034 24.4127 12.217 24.4272C12.342 24.443 12.5231 24.3982 12.584 24.4659C12.7876 24.6926 13.0437 24.5873 13.2739 24.6327C13.332 24.6441 13.3884 24.6653 13.4436 24.6872C13.5316 24.7219 13.6176 24.7928 13.7047 24.7935C14.7938 24.8016 15.8829 24.7999 16.9717 24.7992C17.0342 24.7992 17.1313 24.8083 17.1535 24.7747C17.3034 24.5476 17.5329 24.6509 17.7288 24.6189C17.8122 24.6055 17.9506 24.6189 17.9701 24.5765C18.0474 24.4087 18.1899 24.4611 18.3125 24.4329C18.615 24.3633 18.9369 24.3266 19.2067 24.1893C19.3415 24.1207 19.5031 24.1022 19.6013 24.0235C19.738 23.9138 19.8607 23.8415 20.0314 23.8429C20.0418 23.8429 20.0613 23.8233 20.0617 23.8122C20.0684 23.6376 20.2125 23.6683 20.3056 23.6716C20.4498 23.6767 20.4501 23.5879 20.4622 23.4937C20.5543 23.4836 20.647 23.4768 20.7381 23.4614C20.7633 23.4573 20.7966 23.4318 20.8036 23.4092C20.8104 23.387 20.7909 23.3339 20.7781 23.3322C20.6874 23.3208 20.5929 23.3063 20.5052 23.3228C20.4827 23.3272 20.4807 23.4388 20.4693 23.5014L20.4683 23.5011Z" fill="white"/>
</svg>
