<svg width="44" height="44" viewBox="0 0 44 44" fill="none" xmlns="http://www.w3.org/2000/svg">
<path d="M8.70046 18.1699L12.6577 14.2123C13.1982 12.2848 12.7122 10.1301 11.196 8.61463C8.78545 6.20366 5.63868 5.82854 2.87243 3.98312C1.8747 3.31779 1.57418 2.94336 1.57418 2.94336C-0.880972 6.38 -0.532667 13.0727 3.10283 16.7082C4.6186 18.2236 6.77331 18.7106 8.70046 18.1699Z" fill="#FF6061"/>
<path d="M10.9157 17.8937C10.4605 18.3495 10.2892 19.4383 10.634 20.7011C10.9543 21.8775 11.9445 23.2961 13.3535 24.8286C14.2649 23.8058 15.1391 22.8516 15.928 22.0305C17.0751 20.7139 18.1368 19.6011 19.1197 18.6866C17.6625 17.3728 16.3144 16.4526 15.1897 16.1461C13.9265 15.8013 12.8371 15.9727 12.3819 16.4278L10.9157 17.8937Z" fill="#FF6061"/>
<path d="M26.5797 26.6768C25.7155 27.5828 24.6883 28.554 23.4928 29.596C22.7468 30.3129 21.8895 31.1008 20.9718 31.9226C25.4019 35.7939 30.542 39.9476 31.78 40.9294C33.6169 42.4223 35.35 42.8697 36.3541 41.866C37.3582 40.8622 36.9098 39.1294 35.4173 37.2918C34.4496 36.072 30.4017 31.0626 26.5797 26.6768Z" fill="#FF6061"/>
<path d="M28.6367 21.3297L24.1932 16.8872C22.2455 17.418 19.6148 19.8319 16.9147 22.9337C12.6315 27.3846 5.75115 35.8888 4.46364 37.5126C3.0076 39.3042 2.57078 40.9945 3.54978 41.9734C4.52946 42.9531 6.21943 42.5157 8.01139 41.0603C9.63475 39.7719 18.139 32.8916 22.5899 28.6092C25.6917 25.9087 28.1055 23.2777 28.6367 21.3297Z" fill="#FF6061"/>
<path d="M31.8999 18.1677L27.3329 13.6013L25.049 15.8848L29.616 20.4519L31.8999 18.1677Z" fill="#FF6061"/>
<path d="M43.6135 8.27542L37.2247 1.88777C36.7091 1.3718 35.8731 1.3718 35.3578 1.88777L31.8235 5.42135L40.0792 13.677L43.6134 10.1428C44.1288 9.62739 44.1288 8.79147 43.6135 8.27542Z" fill="#FF6061"/>
<path d="M30.0552 7.1895C27.2885 9.95651 29.5282 11.4056 28.211 12.7228L32.7777 17.2899C34.0953 15.9726 35.5444 18.2123 38.3106 15.446L39.1455 14.6107L30.8898 6.35504L30.0552 7.1895Z" fill="#FF6061"/>
</svg>
