<svg width="32" height="32" viewBox="0 0 32 32" fill="none" xmlns="http://www.w3.org/2000/svg">
<path d="M8 14.6666H13.3333" stroke="white" stroke-width="2" stroke-linecap="round" stroke-linejoin="round"/>
<path d="M10.667 12V17.3333" stroke="white" stroke-width="2" stroke-linecap="round" stroke-linejoin="round"/>
<path d="M21.333 15.4667H21.3463" stroke="white" stroke-width="3" stroke-linecap="round" stroke-linejoin="round"/>
<path d="M24 13.3334H24.0133" stroke="white" stroke-width="3" stroke-linecap="round" stroke-linejoin="round"/>
<path d="M23.0937 6.66663H8.90699C7.58736 6.66693 6.31471 7.15646 5.33504 8.04058C4.35537 8.92469 3.73825 10.1406 3.60299 11.4533C3.59499 11.5226 3.58966 11.588 3.58033 11.656C3.47233 12.5546 2.66699 19.2746 2.66699 21.3333C2.66699 22.3942 3.08842 23.4116 3.83857 24.1617C4.58871 24.9119 5.60613 25.3333 6.66699 25.3333C8.00033 25.3333 8.66699 24.6666 9.33366 24L11.219 22.1146C11.719 21.6145 12.3971 21.3334 13.1043 21.3333H18.8963C19.6035 21.3334 20.2817 21.6145 20.7817 22.1146L22.667 24C23.3337 24.6666 24.0003 25.3333 25.3337 25.3333C26.3945 25.3333 27.4119 24.9119 28.1621 24.1617C28.9122 23.4116 29.3337 22.3942 29.3337 21.3333C29.3337 19.2733 28.5283 12.5546 28.4203 11.656C28.411 11.5893 28.4057 11.5226 28.3977 11.4546C28.2627 10.1417 27.6457 8.92546 26.666 8.04107C25.6863 7.15668 24.4135 6.66697 23.0937 6.66663Z" stroke="white" stroke-width="2" stroke-linecap="round" stroke-linejoin="round"/>
</svg>
