<svg width="124" height="32" viewBox="0 0 124 32" fill="none" xmlns="http://www.w3.org/2000/svg">
<g clip-path="url(#clip0_1_998)">
<path d="M43.0774 19.2165C43.0843 19.3356 43.0949 19.4353 43.0952 19.5349C43.0976 21.4414 43.0986 23.3479 43.1002 25.2544C43.1002 25.48 43.2124 25.5832 43.4514 25.5829C44.5584 25.5819 45.6651 25.5817 46.772 25.5814C47.0074 25.5814 47.1251 25.4702 47.1251 25.2479C47.1251 22.3941 47.1259 19.5402 47.1251 16.6861C47.1243 14.0927 47.1261 11.4992 47.1126 8.90596C47.1113 8.65973 47.0438 8.39837 46.9364 8.17509C46.8916 8.08225 46.8255 7.99395 46.8064 7.88522C46.8037 7.87034 46.79 7.8552 46.7773 7.8446C46.6561 7.74344 46.5279 7.64782 46.5107 7.47703C46.5084 7.45457 46.4824 7.43086 46.462 7.41395C46.3847 7.35038 46.2918 7.29942 46.2296 7.22474C46.128 7.10339 46.0422 6.97271 45.8567 6.96211C45.8358 6.96085 45.8088 6.94723 45.7966 6.93108C45.6849 6.7835 45.5502 6.6788 45.3453 6.6846C45.3043 6.68586 45.2344 6.67602 45.2254 6.65382C45.1653 6.50624 45.0332 6.56098 44.9268 6.54711C44.8178 6.53273 44.7066 6.5297 44.5997 6.50775C44.5102 6.48933 44.4258 6.425 44.339 6.4245C43.4623 6.41769 42.5854 6.41214 41.7087 6.42374C41.4414 6.42727 41.1531 6.33418 40.9072 6.52667C40.88 6.54812 40.8225 6.5355 40.7791 6.53752C40.6486 6.54332 40.5181 6.54635 40.3882 6.55468C40.3472 6.5572 40.2828 6.56048 40.2704 6.58344C40.1809 6.74868 39.9596 6.6788 39.8429 6.81579C39.7667 6.90535 39.5907 6.91695 39.5115 7.00551C39.3945 7.13644 39.1777 7.171 39.1351 7.37359C39.1232 7.42985 39.0692 7.4909 39.0163 7.5237C38.8691 7.61528 38.7556 7.72048 38.7487 7.9001C38.7479 7.91928 38.727 7.95359 38.7143 7.95384C38.5825 7.95788 38.6256 8.05854 38.6079 8.12388C38.5986 8.15769 38.6066 8.21823 38.5899 8.22404C38.3898 8.29493 38.4888 8.46194 38.4575 8.58531C38.4432 8.64207 38.4649 8.73113 38.4308 8.7556C38.2627 8.87644 38.3199 9.04396 38.3196 9.19281C38.3154 11.508 38.3162 13.8232 38.3159 16.1382C38.3159 16.2068 38.3159 16.2754 38.3159 16.3597H32.9514V19.21H33.5097C33.5179 19.2516 33.5258 19.2741 33.5258 19.2968C33.5285 20.3208 33.5308 21.3451 33.5301 22.3691C33.5301 22.4009 33.5007 22.4362 33.4771 22.4639C33.4401 22.5076 33.3964 22.5464 33.3432 22.5997C32.7958 22.6567 32.7865 22.6491 32.7865 22.11C32.7865 18.0364 32.7865 13.9625 32.7865 9.88886C32.7865 9.34973 32.7953 9.34292 33.3596 9.40119C33.674 9.68678 33.5266 10.0501 33.5295 10.3758C33.5446 12.0335 33.5364 13.6915 33.5364 15.3495V15.6407C34.0504 15.6407 34.5409 15.6563 35.0295 15.6339C35.2654 15.623 35.4978 15.541 35.7307 15.488C35.7482 15.484 35.7566 15.4517 35.7741 15.4381C35.8072 15.4124 35.8411 15.3849 35.8794 15.3682C36.0271 15.3034 36.1772 15.2438 36.3244 15.1785C36.3419 15.1707 36.3437 15.1353 36.3601 15.1197C36.4739 15.0107 36.5809 14.8929 36.7074 14.7986C36.8371 14.7017 36.9668 14.6154 36.9829 14.4423C36.9848 14.4214 36.9959 14.3941 37.0123 14.3828C37.1754 14.272 37.277 14.1305 37.2789 13.933C37.2791 13.8989 37.2863 13.8409 37.3045 13.8351C37.4657 13.7849 37.4046 13.656 37.4215 13.5553C37.4313 13.4978 37.4207 13.4024 37.4509 13.389C37.5729 13.3353 37.5592 13.2402 37.5592 13.1484C37.561 11.7628 37.5618 10.3773 37.5621 8.99199C37.5621 8.94506 37.5719 8.87241 37.5457 8.85525C37.3704 8.74122 37.4438 8.5684 37.4178 8.41981C37.4088 8.36885 37.412 8.28938 37.3808 8.27323C37.2111 8.18594 37.2212 7.99547 37.1529 7.8663C37.0933 7.75353 37.0057 7.64807 36.9363 7.5517C36.8514 7.43363 36.704 7.35265 36.6489 7.20103C36.6388 7.17353 36.6015 7.15032 36.5711 7.13543C36.4954 7.0986 36.4025 7.10869 36.3652 6.99264C36.344 6.92604 36.232 6.87356 36.1497 6.8395C35.9948 6.77568 35.8315 6.72976 35.6719 6.67602C35.6661 6.67401 35.6579 6.67148 35.6563 6.66719C35.5795 6.46587 35.3948 6.57561 35.2601 6.54484C35.1423 6.51784 35.0189 6.5133 34.9004 6.48933C34.8329 6.47571 34.7699 6.42223 34.7045 6.42197C33.6349 6.41794 32.5655 6.41945 31.4959 6.42046C31.4528 6.42046 31.3892 6.41062 31.3694 6.43282C31.2246 6.5958 31.0269 6.5239 30.8519 6.54913C30.804 6.55594 30.7217 6.5514 30.7137 6.57234C30.6605 6.7116 30.5383 6.67703 30.4329 6.69091C30.3847 6.69722 30.3286 6.70176 30.2926 6.72774C30.1195 6.85287 29.9517 6.98457 29.7834 7.1155C29.7259 7.16016 29.6775 7.21667 29.6169 7.25653C29.4864 7.34205 29.3633 7.42884 29.3445 7.59509C29.3421 7.61704 29.3339 7.64505 29.3175 7.65766C29.1807 7.76311 29.048 7.86907 29.0533 8.0593C29.0539 8.07494 29.0441 8.10345 29.0348 8.10496C28.8689 8.13574 28.9287 8.26491 28.9101 8.35951C28.899 8.41602 28.9049 8.51088 28.8747 8.52274C28.7354 8.57648 28.7733 8.68597 28.7672 8.77856C28.7579 8.92034 28.7582 9.06263 28.7582 9.20466C28.7577 13.7284 28.7577 18.2521 28.7582 22.7758C28.7582 22.9415 28.7624 23.1073 28.7672 23.273C28.7685 23.3199 28.764 23.3969 28.7887 23.4085C28.9514 23.4844 28.8895 23.628 28.9178 23.745C28.9522 23.8871 29.0428 24.014 29.1079 24.1381C29.1772 24.2708 29.3567 24.3556 29.3734 24.5382C29.3749 24.5551 29.4006 24.5715 29.4178 24.5851C29.4964 24.6475 29.5888 24.6989 29.6523 24.7728C29.7521 24.8894 29.8397 25.0115 30.012 25.035C30.0353 25.0382 30.0695 25.0418 30.0788 25.0564C30.1931 25.236 30.3609 25.3195 30.579 25.3208C30.6081 25.3208 30.6576 25.3304 30.6629 25.346C30.7116 25.4926 30.8403 25.4386 30.9411 25.4517C31.056 25.4666 31.1732 25.4702 31.286 25.4931C31.3638 25.509 31.4358 25.5743 31.5107 25.5749C32.574 25.5809 33.6373 25.5801 34.7008 25.5779C34.7587 25.5779 34.8172 25.5542 34.8739 25.5368C34.9461 25.5143 35.015 25.4732 35.0885 25.4646C35.2238 25.4487 35.3614 25.4527 35.4978 25.4439C35.538 25.4414 35.6081 25.429 35.6113 25.4119C35.6349 25.289 35.7381 25.3238 35.8154 25.3079C35.8509 25.3006 35.894 25.3052 35.921 25.287C36.0436 25.2048 36.1629 25.118 36.2812 25.0299C36.3704 24.9636 36.4639 24.8995 36.542 24.8223C36.6526 24.713 36.7373 24.5768 36.8585 24.4815C36.9959 24.3737 37.1301 24.2784 37.1333 24.0904C37.1333 24.075 37.1478 24.047 37.1566 24.0468C37.3069 24.0407 37.2537 23.9244 37.2767 23.85C37.2868 23.8179 37.2926 23.7607 37.3085 23.7579C37.4488 23.7332 37.4051 23.6262 37.4178 23.5472C37.4356 23.4373 37.4051 23.2874 37.47 23.2251C37.5674 23.1315 37.5616 23.0399 37.5618 22.9395C37.5647 21.7966 37.5647 20.6541 37.5671 19.5112C37.5671 19.4133 37.5798 19.3154 37.5864 19.2226H38.3006C38.3059 19.3359 38.3146 19.4355 38.3149 19.5354C38.3157 21.4538 38.3154 23.3724 38.3157 25.2908C38.3157 25.4462 38.4393 25.5789 38.597 25.5789C39.7908 25.5789 40.9848 25.5781 42.1785 25.5693C42.2318 25.5688 42.3035 25.4966 42.3315 25.4414C42.3588 25.3882 42.3427 25.314 42.3429 25.2489C42.3442 23.3363 42.3448 21.424 42.3469 19.5115C42.3469 19.4136 42.3585 19.3157 42.3652 19.216H43.0782L43.0774 19.2165ZM57.1836 6.41895C57.1029 6.56779 57.0158 6.67476 56.9856 6.7946C56.9181 7.06378 57.0023 7.34205 56.8477 7.62158C56.7294 7.83552 56.8501 8.1312 56.6971 8.38449C56.6177 8.51618 56.6719 8.72053 56.664 8.89183C56.6614 8.95061 56.6759 9.0432 56.6442 9.06212C56.465 9.1696 56.5415 9.33535 56.5242 9.47688C56.5076 9.6116 56.5647 9.79274 56.4917 9.87574C56.3101 10.0829 56.4062 10.3104 56.3657 10.5249C56.3572 10.5703 56.3649 10.6439 56.3392 10.6566C56.2071 10.7214 56.2368 10.8347 56.2307 10.9363C56.2214 11.09 56.2217 11.2441 56.2114 11.3975C56.2085 11.4399 56.1841 11.4818 56.1653 11.5219C56.1399 11.5764 56.0909 11.6273 56.0859 11.6826C56.0708 11.8534 56.0727 12.0254 56.0655 12.197C56.0637 12.2437 56.0706 12.3178 56.0446 12.3322C55.8755 12.4261 55.9411 12.5807 55.9268 12.7114C55.9107 12.8582 55.97 13.0533 55.8911 13.1446C55.723 13.3386 55.8059 13.5447 55.7707 13.7425C55.7603 13.8 55.7712 13.8951 55.74 13.9095C55.601 13.9738 55.6399 14.0861 55.6349 14.1858C55.6259 14.3689 55.624 14.5526 55.6166 14.736C55.6148 14.7829 55.6211 14.8535 55.5933 14.872C55.4263 14.9827 55.4988 15.148 55.4758 15.2903C55.4589 15.3944 55.4888 15.5365 55.4276 15.596C55.3329 15.6881 55.3366 15.7797 55.3318 15.8816C55.3252 16.0234 55.3252 16.1657 55.3165 16.3075C55.3133 16.3589 55.2982 16.4111 55.2805 16.4601C55.2508 16.5416 55.1976 16.6183 55.1849 16.7013C55.1656 16.8294 55.1767 16.9614 55.1651 17.0911C55.1619 17.1276 55.1248 17.1614 55.1034 17.1965C55.0817 17.1614 55.0475 17.1284 55.0407 17.0908C55.0224 16.9927 55.0542 16.8446 54.9967 16.8029C54.8675 16.7091 54.8964 16.5961 54.8874 16.4851C54.876 16.3435 54.8784 16.2012 54.871 16.0592C54.8689 16.0196 54.8662 15.9553 54.8432 15.9454C54.7116 15.8894 54.7447 15.7799 54.7392 15.6851C54.7302 15.5314 54.7299 15.3773 54.7209 15.2239C54.7183 15.1792 54.7024 15.1341 54.6854 15.0917C54.6558 15.0165 54.601 14.9451 54.592 14.8684C54.5735 14.7103 54.5801 14.5493 54.5722 14.3896C54.5698 14.3437 54.5674 14.269 54.5409 14.2577C54.4086 14.2009 54.444 14.0927 54.4382 13.9986C54.4295 13.851 54.4305 13.7026 54.4213 13.555C54.4181 13.5038 54.4006 13.4521 54.3824 13.4032C54.354 13.3272 54.3022 13.2558 54.291 13.1786C54.2728 13.0502 54.2807 12.9188 54.2738 12.7886C54.2717 12.749 54.2696 12.6852 54.2466 12.6748C54.1171 12.6176 54.1473 12.5093 54.142 12.4135C54.1336 12.2598 54.133 12.1057 54.124 11.9523C54.1214 11.9076 54.1058 11.8627 54.0891 11.8203C54.0592 11.7452 54.0044 11.6738 53.9954 11.5971C53.9769 11.4389 53.9832 11.2779 53.9753 11.1182C53.9729 11.0723 53.9702 10.9976 53.944 10.9863C53.8112 10.9293 53.8562 10.8198 53.8398 10.7269C53.7993 10.5001 53.92 10.2438 53.7013 10.047C53.6783 10.0264 53.6923 9.96707 53.691 9.92569C53.6862 9.78971 53.6841 9.65348 53.6772 9.5175C53.6754 9.47789 53.6656 9.43727 53.6513 9.39993C53.6182 9.31289 53.5608 9.22989 53.5486 9.14084C53.5277 8.98896 53.5362 8.83355 53.5272 8.68017C53.5245 8.63576 53.5092 8.59061 53.4917 8.54873C53.4626 8.47884 53.4067 8.41325 53.3988 8.34236C53.3805 8.17812 53.3861 8.01136 53.3781 7.84586C53.376 7.79995 53.3739 7.72401 53.3485 7.71392C53.2127 7.65917 53.2505 7.54943 53.2447 7.45583C53.2357 7.30825 53.2371 7.1599 53.2281 7.01232C53.2249 6.9611 53.209 6.90939 53.1905 6.8607C53.1619 6.78501 53.1013 6.71286 53.0984 6.63768C53.0915 6.47016 53.0348 6.41214 52.844 6.4134C51.4512 6.42273 50.0584 6.41844 48.6656 6.41844C48.4256 6.41844 48.3056 6.53348 48.3056 6.76357C48.3067 12.2581 48.308 17.7525 48.3088 23.247C48.3088 23.9456 48.3053 24.6442 48.3064 25.3427C48.3067 25.5794 48.3112 25.5799 48.5555 25.5796C49.6373 25.5781 50.7191 25.5764 51.8011 25.5749C51.8882 25.5749 51.9819 25.5948 52.0608 25.5706C52.1846 25.5325 52.336 25.5012 52.3358 25.3281C52.335 24.1262 52.3323 22.9244 52.3329 21.7225C52.3334 20.6863 52.3366 19.6505 52.3419 18.6143C52.3424 18.5306 52.3667 18.4471 52.3802 18.3636C52.4041 18.3651 52.4282 18.3666 52.452 18.3681C52.462 18.4292 52.4787 18.49 52.4811 18.551C52.4896 18.7581 52.4912 18.9653 52.4996 19.1724C52.5017 19.2234 52.5152 19.2753 52.5324 19.324C52.5616 19.4063 52.6179 19.4847 52.6264 19.568C52.646 19.762 52.6428 19.958 52.6516 20.153C52.6537 20.1994 52.65 20.2706 52.6778 20.2872C52.8188 20.3723 52.7794 20.5032 52.785 20.6202C52.7958 20.8508 52.7969 21.0819 52.8056 21.3125C52.8072 21.3574 52.8215 21.4033 52.8376 21.446C52.8665 21.5222 52.9215 21.5946 52.9297 21.6718C52.9475 21.8421 52.9417 22.0146 52.948 22.1862C52.9496 22.2265 52.9467 22.2919 52.9692 22.3032C53.1164 22.3769 53.0724 22.5071 53.0796 22.6181C53.0912 22.8012 53.0894 22.9849 53.096 23.1683C53.0976 23.2142 53.0944 23.2871 53.1206 23.3013C53.2561 23.3737 53.2228 23.4938 53.2281 23.6007C53.2386 23.8195 53.2405 24.0384 53.2482 24.2574C53.2498 24.3043 53.2426 24.3752 53.2701 24.3937C53.4295 24.5006 53.3718 24.6573 53.3826 24.7958C53.3953 24.9608 53.3906 25.127 53.3996 25.2925C53.4057 25.4083 53.5682 25.5781 53.6735 25.5784C54.6248 25.5799 55.5764 25.5809 56.5277 25.5741C56.5745 25.5738 56.6441 25.507 56.6621 25.4578C56.6918 25.3766 56.6537 25.2416 56.7045 25.205C56.8511 25.0993 56.8053 24.9626 56.8151 24.8359C56.8284 24.6649 56.8249 24.4928 56.8305 24.3213C56.8318 24.2804 56.8265 24.2155 56.849 24.2032C57.0036 24.1189 56.9554 23.9774 56.9639 23.8558C56.9763 23.6787 56.9737 23.5008 56.9795 23.3232C56.9808 23.2823 56.9753 23.2173 56.9978 23.2049C57.1529 23.1204 57.1044 22.9786 57.1129 22.857C57.1254 22.6799 57.1227 22.502 57.1285 22.3244C57.1299 22.2836 57.1243 22.218 57.1468 22.2061C57.3056 22.1226 57.2529 21.9788 57.2619 21.8574C57.2752 21.6806 57.2701 21.5025 57.2749 21.3249C57.276 21.284 57.2731 21.2151 57.2932 21.2071C57.4626 21.1392 57.4033 20.9979 57.4104 20.8844C57.4242 20.6717 57.4215 20.4583 57.4297 20.2454C57.4319 20.1934 57.4311 20.1142 57.4626 20.0955C57.5854 20.0233 57.5576 19.9144 57.5616 19.8132C57.5692 19.624 57.5711 19.4345 57.5782 19.2451C57.5798 19.1984 57.5743 19.1265 57.6015 19.1096C57.7553 19.0147 57.7026 18.8697 57.713 18.742C57.7249 18.5947 57.7204 18.4461 57.731 18.2985C57.7331 18.2675 57.7701 18.2389 57.791 18.2092C57.8122 18.2389 57.8488 18.2677 57.8514 18.2987C57.8617 18.4224 57.8646 18.547 57.8649 18.6711C57.8657 20.8617 57.8654 23.0525 57.8654 25.2431C57.8654 25.4666 57.9793 25.5785 58.2071 25.5786C59.3202 25.5786 60.4332 25.5786 61.5462 25.5786C61.7793 25.5786 61.8959 25.4649 61.8959 25.2375C61.8959 20.0332 61.8959 14.8291 61.8959 9.62472V9.38202H70.2304C70.2392 9.34443 70.2484 9.32223 70.2487 9.30003C70.2527 8.39433 70.2559 7.48863 70.2585 6.58293C70.2588 6.46209 70.2071 6.41264 70.0658 6.41365C69.2453 6.41945 68.4247 6.41289 67.6045 6.41314C64.1907 6.4139 60.777 6.41567 57.3633 6.41718C57.2958 6.41718 57.2283 6.41718 57.1836 6.41718V6.41895ZM74.912 18.219C74.9372 18.218 74.9623 18.217 74.9875 18.216C74.9986 18.2735 75.0166 18.3308 75.0198 18.3888C75.0288 18.5482 75.029 18.7084 75.0388 18.8679C75.042 18.9191 75.0595 18.9708 75.078 19.0198C75.1066 19.0952 75.1587 19.1661 75.1704 19.243C75.1892 19.3651 75.1778 19.4913 75.1892 19.6149C75.1937 19.6628 75.223 19.7093 75.2445 19.7552C75.2672 19.8039 75.3104 19.8493 75.3154 19.8987C75.3294 20.04 75.3268 20.1825 75.335 20.3243C75.3376 20.37 75.3403 20.4449 75.3654 20.455C75.5023 20.5095 75.4618 20.62 75.4695 20.7133C75.4811 20.8607 75.425 21.0617 75.5057 21.1447C75.6614 21.3052 75.5986 21.4735 75.6243 21.638C75.6415 21.7487 75.5944 21.9066 75.6569 21.9654C75.84 22.1377 75.7421 22.3403 75.7786 22.5257C75.7911 22.5891 75.7715 22.693 75.8059 22.7114C75.9753 22.8022 75.9022 22.9503 75.9205 23.074C75.9377 23.1905 75.8871 23.3603 75.9525 23.4176C76.1129 23.5581 76.0494 23.7198 76.0703 23.8729C76.0862 23.99 76.0378 24.1497 76.1023 24.2193C76.29 24.4222 76.1886 24.6538 76.2307 24.8682C76.2387 24.9083 76.2326 24.9742 76.2553 24.985C76.4041 25.0549 76.3604 25.1825 76.3673 25.293C76.3782 25.4684 76.4975 25.5799 76.691 25.5799C77.7172 25.5807 78.7432 25.5774 79.7694 25.5839C79.911 25.5849 79.9594 25.533 79.9652 25.4146C79.9676 25.3675 79.9676 25.32 79.9676 25.2726C79.9676 19.0907 79.9676 12.9084 79.9674 6.72648C79.9674 6.66745 79.9626 6.60841 79.9578 6.54963C79.9507 6.46158 79.9141 6.41642 79.8064 6.41668C78.6124 6.4192 77.4184 6.41668 76.2246 6.41743C76.1799 6.41743 76.1092 6.42828 76.0952 6.45502C76.0401 6.56073 75.8477 6.65357 76.0454 6.80015C76.0751 6.8221 76.0605 6.90182 76.061 6.9548C76.0703 7.74217 76.0782 8.5298 76.0886 9.31718C76.0894 9.38076 76.0997 9.44559 76.1169 9.50715C76.1423 9.59797 76.2027 9.68577 76.205 9.77583C76.2185 10.2612 76.2005 10.7476 76.2289 11.232C76.2566 11.7053 76.1857 12.1756 76.3347 12.6567C76.4462 13.0167 76.3623 13.4322 76.3604 13.8227C76.3604 13.8598 76.3239 13.8969 76.304 13.934C76.2805 13.8946 76.2397 13.8568 76.236 13.8159C76.2241 13.6744 76.2267 13.5321 76.2199 13.3901C76.2175 13.3439 76.2162 13.2674 76.1913 13.2573C76.038 13.1958 76.0904 13.0712 76.0806 12.9677C76.0671 12.8267 76.1193 12.6309 76.0407 12.5552C75.9028 12.4225 75.9475 12.2866 75.93 12.1501C75.9128 12.0154 75.9674 11.8332 75.8935 11.752C75.7196 11.5612 75.8091 11.3521 75.7712 11.1548C75.7604 11.0973 75.7704 11.0027 75.7392 10.9883C75.6002 10.9245 75.6487 10.8107 75.6312 10.7128C75.5994 10.5324 75.6979 10.3243 75.501 10.1767C75.4771 10.1591 75.4875 10.0977 75.4856 10.0564C75.4798 9.92039 75.4777 9.78416 75.47 9.64818C75.4679 9.60958 75.4544 9.57047 75.4401 9.53364C75.4078 9.45165 75.353 9.37369 75.3414 9.28968C75.3212 9.14361 75.3286 8.99426 75.3202 8.84667C75.3175 8.80076 75.3152 8.72583 75.2889 8.71473C75.1561 8.65872 75.1918 8.55049 75.1849 8.45639C75.1765 8.33832 75.1788 8.2195 75.169 8.10168C75.1656 8.05879 75.1436 8.01616 75.1254 7.97529C75.0989 7.9165 75.0499 7.86151 75.042 7.80096C75.0245 7.66624 75.0301 7.52925 75.019 7.39352C75.0155 7.35063 74.992 7.30825 74.9734 7.26738C74.9467 7.20809 74.8993 7.15259 74.8906 7.09154C74.8744 6.98078 74.8805 6.86726 74.8766 6.75474C74.8694 6.55493 74.7304 6.42399 74.5176 6.42349C73.5041 6.42097 72.4906 6.41945 71.4769 6.41869C71.2908 6.41869 71.1577 6.54685 71.1574 6.72295C71.1571 7.79465 71.1574 8.8661 71.1574 9.9378C71.1574 15.0362 71.1574 20.1346 71.1574 25.233C71.1574 25.4782 71.2651 25.5799 71.5258 25.5799C72.6637 25.5799 73.8019 25.5746 74.9398 25.5852C75.1357 25.587 75.1881 25.5221 75.1857 25.3569C75.1765 24.7292 75.1727 24.1018 75.1635 23.4741C75.1627 23.4246 75.1381 23.3749 75.1206 23.3265C75.0976 23.2634 75.0499 23.2021 75.0486 23.139C75.0378 22.6418 75.0518 22.1435 75.0256 21.6473C74.9996 21.1561 75.0277 20.6697 74.9231 20.1704C74.8048 19.6061 74.8879 19.0031 74.8861 18.4171C74.8861 18.351 74.9036 18.2846 74.9131 18.2183L74.912 18.219ZM124 15.9994C124 12.9322 124 9.86514 124 6.79788C124 6.74464 124 6.69141 124 6.63793C124 6.48706 123.951 6.41264 123.762 6.41415C122.618 6.42374 121.473 6.42424 120.329 6.4139C120.126 6.41213 120.087 6.49438 120.089 6.65105C120.098 7.46214 120.106 8.27323 120.116 9.08432C120.117 9.13503 120.133 9.1865 120.149 9.23569C120.175 9.31542 120.23 9.39312 120.232 9.47234C120.247 10.3248 120.254 11.1773 120.264 12.03C120.264 12.083 120.249 12.1602 120.278 12.1849C120.438 12.3178 120.382 12.4909 120.385 12.6488C120.393 13.0394 120.39 13.4302 120.386 13.8207C120.385 13.8553 120.342 13.8891 120.319 13.9234C120.301 13.8908 120.269 13.859 120.267 13.8255C120.256 13.6721 120.255 13.518 120.246 13.3643C120.244 13.3199 120.23 13.2745 120.213 13.2326C120.182 13.1569 120.125 13.0858 120.115 13.0083C120.095 12.8562 120.103 12.7011 120.093 12.5474C120.089 12.4972 120.069 12.4468 120.049 12.3991C120.022 12.3345 119.971 12.275 119.962 12.2091C119.945 12.0746 119.952 11.9371 119.942 11.8014C119.939 11.7583 119.917 11.7154 119.899 11.6748C119.872 11.616 119.822 11.5612 119.815 11.5015C119.798 11.3607 119.803 11.2179 119.795 11.0761C119.792 11.0375 119.778 10.9981 119.763 10.9616C119.732 10.8861 119.676 10.8145 119.666 10.7373C119.647 10.5852 119.654 10.43 119.645 10.2764C119.643 10.2304 119.639 10.1583 119.611 10.1447C119.476 10.0796 119.518 9.9658 119.51 9.8664C119.499 9.72487 119.552 9.52733 119.474 9.45266C119.31 9.29549 119.386 9.12545 119.357 8.96298C119.343 8.8878 119.379 8.77603 119.337 8.73844C119.129 8.55453 119.245 8.3194 119.203 8.11152C119.195 8.07115 119.209 8.0048 119.187 7.99219C119.006 7.8885 119.08 7.71922 119.063 7.57617C119.046 7.44145 119.099 7.25325 119.024 7.18009C118.878 7.03881 118.923 6.89021 118.912 6.74237C118.895 6.53525 118.777 6.41844 118.555 6.41819C117.548 6.41794 116.54 6.41794 115.533 6.41819C115.312 6.41819 115.189 6.53929 115.189 6.75474C115.189 12.9185 115.189 19.0826 115.189 25.2464C115.189 25.4578 115.316 25.5794 115.537 25.5794C116.681 25.5794 117.825 25.5794 118.969 25.5794C119.21 25.5794 119.215 25.5776 119.214 25.3375C119.209 24.6328 119.2 23.9284 119.191 23.2238C119.191 23.1718 119.181 23.1186 119.166 23.0684C119.138 22.9723 119.078 22.8784 119.075 22.7823C119.062 22.303 119.081 21.8221 119.052 21.3441C119.023 20.8708 119.066 20.4025 118.951 19.9197C118.83 19.4123 118.917 18.8598 118.919 18.327C118.919 18.2876 118.964 18.2483 118.988 18.2089C119.008 18.246 119.038 18.2813 119.046 18.3207C119.091 18.5457 119.046 18.768 119.171 19.0031C119.289 19.2236 119.19 19.5243 119.332 19.7819C119.405 19.9139 119.355 20.1074 119.363 20.2729C119.365 20.32 119.354 20.3894 119.381 20.4101C119.586 20.5647 119.469 20.7804 119.508 20.9651C119.522 21.0282 119.503 21.1326 119.538 21.1503C119.695 21.2305 119.636 21.3645 119.649 21.478C119.665 21.6069 119.613 21.7901 119.685 21.8562C119.836 21.9954 119.781 22.1471 119.8 22.2952C119.815 22.4183 119.765 22.585 119.833 22.659C120.014 22.8578 119.921 23.0813 119.959 23.2902C119.968 23.3361 119.961 23.4118 119.987 23.4234C120.141 23.4935 120.086 23.6234 120.097 23.7322C120.109 23.8616 120.057 24.0407 120.128 24.1126C120.313 24.2998 120.217 24.5105 120.253 24.7075C120.263 24.7597 120.246 24.8455 120.274 24.8606C120.448 24.9542 120.385 25.1109 120.395 25.2423C120.412 25.4762 120.513 25.5786 120.759 25.5789C121.754 25.5791 122.749 25.5789 123.744 25.5789C123.983 25.5789 123.993 25.5701 124 25.3412C124.002 25.288 124 25.2348 124 25.1813C124 22.1201 124 19.0589 124 15.9977L124 15.9994ZM85.9255 18.913V19.1464C85.9255 21.1773 85.9255 23.2082 85.9255 25.2393C85.9255 25.4868 86.0229 25.5801 86.2831 25.5804C87.4149 25.5804 88.5465 25.5804 89.6783 25.5804C89.9536 25.5804 89.9554 25.5804 89.9554 25.3188C89.9554 19.9305 89.956 14.5422 89.9504 9.15421C89.9504 8.97635 89.9965 8.79672 89.8392 8.61407C89.7474 8.50735 89.7908 8.29064 89.6754 8.13624C89.5849 8.01515 89.5542 7.85318 89.4959 7.70988C89.4922 7.7008 89.4777 7.69626 89.4708 7.68768C89.3797 7.57466 89.289 7.46164 89.1987 7.34811C89.1788 7.32313 89.1656 7.29185 89.1418 7.27141C89.0611 7.20254 88.9795 7.13392 88.8932 7.0716C88.7794 6.98936 88.6685 6.89803 88.5417 6.83849C88.393 6.76836 88.2286 6.72825 88.0711 6.67451C88.06 6.67073 88.042 6.66543 88.0404 6.65786C88.0041 6.50018 87.8684 6.56351 87.7702 6.54837C87.6561 6.53071 87.5391 6.52768 87.4263 6.50472C87.3427 6.48782 87.2638 6.425 87.1825 6.4245C86.2312 6.41794 85.2797 6.41289 84.3284 6.42349C84.0939 6.42601 83.8594 6.37177 83.6188 6.51961C83.4512 6.62254 83.1865 6.50598 82.9854 6.67123C82.8673 6.76836 82.6775 6.78627 82.5203 6.84051C82.5102 6.84404 82.5031 6.85515 82.4941 6.86246C82.3276 6.99718 82.1537 7.12484 81.997 7.26914C81.8983 7.35997 81.8228 7.4745 81.7408 7.58122C81.7212 7.60695 81.7265 7.65993 81.704 7.67204C81.5446 7.75681 81.524 7.92861 81.4552 8.0593C81.3639 8.23236 81.2307 8.40947 81.2773 8.6282C81.2792 8.63677 81.2678 8.65519 81.2596 8.65721C81.1203 8.69177 81.1577 8.80227 81.1534 8.88956C81.146 9.0432 81.1468 9.19735 81.1468 9.35124C81.1465 14.6626 81.1465 19.9736 81.1465 25.285C81.1465 25.3263 81.1476 25.368 81.1473 25.4094C81.1465 25.5284 81.1876 25.5847 81.3332 25.5839C82.5084 25.5781 83.6836 25.5812 84.8591 25.5804C85.0698 25.5804 85.177 25.4744 85.177 25.2726C85.177 23.2238 85.177 21.1753 85.177 19.1265V18.9133H85.9258L85.9255 18.913ZM114.134 15.9805C114.137 15.9805 114.141 15.9805 114.145 15.9805C114.145 15.1813 114.146 14.382 114.145 13.5828C114.142 11.9785 114.143 10.374 114.126 8.76998C114.124 8.55857 114.025 8.34816 113.97 8.13725C113.969 8.1317 113.966 8.12211 113.962 8.12186C113.815 8.109 113.848 7.99673 113.831 7.91045C113.826 7.88371 113.812 7.83602 113.802 7.83602C113.664 7.83502 113.704 7.72477 113.677 7.65665C113.664 7.62537 113.659 7.58576 113.636 7.56532C113.561 7.49923 113.47 7.44826 113.401 7.37712C113.282 7.25401 113.201 7.07589 113.057 7.00122C112.843 6.88996 112.667 6.69318 112.398 6.68586C112.386 6.68561 112.367 6.68586 112.363 6.6793C112.232 6.46739 112.01 6.57738 111.83 6.54105C111.759 6.52667 111.685 6.52339 111.615 6.50523C111.526 6.48177 111.439 6.42349 111.351 6.42298C110.313 6.41693 109.275 6.41895 108.237 6.41945C108.181 6.41945 108.101 6.40532 108.074 6.43383C107.923 6.59151 107.724 6.51254 107.55 6.55064C107.362 6.59227 107.178 6.65256 106.993 6.70605C106.984 6.70857 106.98 6.72522 106.971 6.73127C106.919 6.76634 106.866 6.79964 106.813 6.83421C106.766 6.86574 106.717 6.89576 106.672 6.93058C106.597 6.98886 106.526 7.05092 106.452 7.11046C106.374 7.17328 106.292 7.2313 106.218 7.2979C106.13 7.37737 106.045 7.46063 105.965 7.54817C105.901 7.61931 105.814 7.69298 105.795 7.77699C105.754 7.96595 105.556 8.10168 105.602 8.31713C105.606 8.33201 105.572 8.35169 105.562 8.37188C105.532 8.42813 105.489 8.48338 105.48 8.54318C105.462 8.65973 105.512 8.81842 105.448 8.88956C105.263 9.09618 105.34 9.32526 105.34 9.54121C105.334 13.857 105.335 18.1728 105.335 22.4889C105.335 22.6251 105.336 22.7614 105.34 22.8974C105.342 22.937 105.353 22.9773 105.367 23.0149C105.399 23.1022 105.447 23.186 105.466 23.2753C105.487 23.3787 105.446 23.5541 105.499 23.5811C105.728 23.6991 105.517 24.0087 105.771 24.0952C105.764 24.3313 106.002 24.4227 106.109 24.5922C106.192 24.7231 106.392 24.7832 106.492 24.9093C106.607 25.0551 106.717 25.1732 106.919 25.18C106.933 25.1805 106.956 25.2002 106.957 25.2116C106.961 25.3357 107.066 25.2963 107.135 25.312C107.171 25.32 107.234 25.3115 107.241 25.3274C107.324 25.5201 107.503 25.4283 107.64 25.453C107.754 25.4737 107.873 25.4722 107.987 25.4944C108.077 25.512 108.163 25.5759 108.251 25.5764C109.283 25.5822 110.315 25.5801 111.347 25.5791C111.409 25.5791 111.499 25.595 111.528 25.5635C111.654 25.4235 111.823 25.4805 111.973 25.4502C112.184 25.4078 112.39 25.347 112.598 25.292C112.612 25.2885 112.617 25.2633 112.631 25.2537C112.737 25.177 112.844 25.1011 112.952 25.0256C113.047 24.9593 113.147 24.8995 113.236 24.8271C113.324 24.7557 113.407 24.6772 113.48 24.5922C113.557 24.5037 113.639 24.4111 113.68 24.3066C113.734 24.1729 113.896 24.0849 113.861 23.9158C113.86 23.9123 113.868 23.9037 113.872 23.9035C114.033 23.8904 113.967 23.7667 113.988 23.6868C114.003 23.63 113.99 23.5397 114.025 23.5195C114.163 23.4405 114.133 23.3199 114.133 23.2089C114.135 20.7994 114.135 18.3901 114.135 15.9805H114.134ZM93.0934 9.38177V9.65852C93.0934 14.8558 93.0934 20.0534 93.0934 25.2507C93.0934 25.4651 93.2138 25.5791 93.4422 25.5791C94.5489 25.5794 95.6553 25.5791 96.762 25.5791C97.0025 25.5791 97.1227 25.4638 97.1227 25.2333C97.1227 20.0299 97.1227 14.8266 97.1227 9.6232C97.1227 9.54853 97.1227 9.4741 97.1227 9.38177H99.4896C99.4983 9.27858 99.5121 9.19205 99.5121 9.10526C99.5137 8.30023 99.5131 7.49519 99.5129 6.69015C99.5129 6.64878 99.5108 6.6074 99.5087 6.56603C99.5031 6.45982 99.4555 6.41668 99.3329 6.41693C96.5603 6.42046 93.7876 6.41945 91.0147 6.41996C90.8332 6.41996 90.7029 6.54509 90.7029 6.71336C90.7027 7.47702 90.7029 8.24069 90.7029 9.00435C90.7029 9.31239 90.7749 9.38151 91.0955 9.38151C91.686 9.38151 92.2768 9.38151 92.8673 9.38151C92.9343 9.38151 93.0012 9.38151 93.0934 9.38151V9.38177ZM66.6881 22.6166V17.4831C66.7934 17.4831 66.8858 17.4831 66.9782 17.4831C67.7119 17.4831 68.4454 17.4831 69.1791 17.4831C69.3972 17.4831 69.5063 17.3814 69.5065 17.1781C69.5065 16.4026 69.5065 15.6271 69.5065 14.8515C69.5065 14.6318 69.3914 14.5241 69.1521 14.5238C68.4247 14.5231 67.6974 14.5238 66.97 14.5231C66.8784 14.5231 66.7868 14.5155 66.6709 14.5102V9.94915C66.2675 9.94915 65.8887 9.95521 65.5108 9.94613C65.3689 9.94285 65.2278 9.90475 65.082 9.88179C64.9883 9.90097 64.8811 9.94083 64.7736 9.94184C64.1643 9.94789 63.555 9.94385 62.9459 9.94562C62.8495 9.94587 62.7529 9.95849 62.65 9.9658C62.65 10.4822 62.6505 10.9785 62.65 11.475C62.6479 13.4284 62.6436 15.3818 62.6434 17.335C62.6428 19.9517 62.6452 22.5681 62.6463 25.1848C62.6463 25.5045 62.7246 25.5801 63.0557 25.5801C65.3623 25.5801 67.6688 25.5801 69.9755 25.5801C70.2596 25.5801 70.2609 25.5801 70.2612 25.3062C70.2619 24.5011 70.2619 23.6958 70.2604 22.8908C70.2604 22.8043 70.2463 22.7175 70.2376 22.6163H66.6889L66.6881 22.6166ZM104.291 16.006C104.291 12.9337 104.291 9.86161 104.291 6.7893C104.291 6.73607 104.29 6.68284 104.291 6.6296C104.294 6.48277 104.247 6.41365 104.065 6.41516C102.921 6.42424 101.777 6.4197 100.633 6.4197C100.381 6.4197 100.264 6.53071 100.264 6.7676C100.264 12.9238 100.264 19.0801 100.264 25.2363C100.264 25.4575 100.39 25.5791 100.62 25.5791C101.727 25.5791 102.833 25.5791 103.94 25.5791C104.175 25.5791 104.292 25.4661 104.292 25.2401C104.292 22.162 104.292 19.0838 104.292 16.0057L104.291 16.006Z" fill="#FF0000"/>
<path d="M43.0772 19.216H42.3641C42.3577 19.3157 42.3461 19.4136 42.3458 19.5115C42.3437 21.424 42.3432 23.3363 42.3418 25.2489C42.3418 25.314 42.358 25.3882 42.3305 25.4414C42.3024 25.4964 42.2307 25.5688 42.1775 25.5693C40.9837 25.5781 39.79 25.5791 38.5959 25.5789C38.4382 25.5789 38.3148 25.4462 38.3146 25.2908C38.3146 23.3724 38.3146 21.4538 38.3138 19.5354C38.3138 19.4355 38.3051 19.3359 38.2995 19.2226H37.5854C37.579 19.3154 37.5663 19.4133 37.566 19.5112C37.5637 20.6541 37.5639 21.7966 37.5607 22.9395C37.5607 23.0399 37.5663 23.1315 37.4689 23.2251C37.404 23.2874 37.4345 23.4372 37.4168 23.5472C37.404 23.6262 37.4477 23.7332 37.3074 23.7579C37.2913 23.7607 37.2855 23.8179 37.2757 23.85C37.2526 23.9244 37.3061 24.041 37.1555 24.0468C37.1468 24.047 37.1325 24.0753 37.1322 24.0904C37.129 24.2784 36.9946 24.3735 36.8575 24.4814C36.7362 24.5768 36.6515 24.713 36.5409 24.8223C36.4625 24.8995 36.3694 24.9636 36.2802 25.0299C36.1619 25.118 36.0427 25.2047 35.9199 25.287C35.8929 25.3052 35.8498 25.3006 35.8143 25.3079C35.737 25.3238 35.6338 25.2888 35.6102 25.4119C35.6071 25.429 35.5367 25.4414 35.4967 25.4439C35.3604 25.4527 35.2227 25.4487 35.0875 25.4646C35.0139 25.4732 34.9451 25.5143 34.8728 25.5368C34.8162 25.5544 34.7574 25.5779 34.6997 25.5779C33.6364 25.5799 32.5729 25.5806 31.5097 25.5748C31.4347 25.5743 31.3625 25.509 31.2849 25.4931C31.1719 25.4701 31.0549 25.4666 30.94 25.4517C30.8395 25.4386 30.7106 25.4926 30.6619 25.346C30.6566 25.3304 30.6071 25.321 30.5779 25.3208C30.3598 25.3195 30.192 25.2363 30.0777 25.0564C30.0682 25.0418 30.0343 25.038 30.011 25.035C29.8387 25.0115 29.7511 24.8891 29.6513 24.7728C29.588 24.6989 29.4954 24.6474 29.4168 24.5851C29.3995 24.5715 29.3739 24.5551 29.3723 24.5382C29.3556 24.3558 29.1761 24.2708 29.1068 24.1381C29.0419 24.014 28.9512 23.8871 28.9168 23.745C28.8884 23.6282 28.9504 23.4844 28.7876 23.4085C28.763 23.3969 28.7675 23.3199 28.7661 23.273C28.7614 23.1073 28.7571 22.9415 28.7571 22.7758C28.7566 18.2521 28.7569 13.7284 28.7571 9.20466C28.7571 9.06263 28.7569 8.92034 28.7661 8.77856C28.7722 8.68597 28.7344 8.57648 28.8736 8.52274C28.9038 8.51114 28.898 8.41602 28.9091 8.35951C28.9276 8.26491 28.8678 8.13574 29.0337 8.10496C29.043 8.10319 29.0525 8.07494 29.0523 8.0593C29.0472 7.86907 29.1799 7.76286 29.3164 7.65766C29.3328 7.64505 29.341 7.61704 29.3434 7.59509C29.3622 7.42884 29.4853 7.34205 29.6158 7.25653C29.6764 7.21667 29.7248 7.16041 29.7823 7.1155C29.9506 6.98457 30.1187 6.85287 30.2916 6.72774C30.3275 6.70176 30.3839 6.69722 30.4318 6.69091C30.5372 6.67703 30.6595 6.7116 30.7127 6.57234C30.7206 6.5514 30.8029 6.55619 30.8508 6.54913C31.0258 6.5239 31.2235 6.5958 31.3683 6.43282C31.3882 6.41062 31.4514 6.42046 31.4948 6.42046C32.5645 6.41945 33.6341 6.41794 34.7034 6.42197C34.7685 6.42197 34.8318 6.47571 34.8993 6.48933C35.0181 6.5133 35.1412 6.51784 35.259 6.54484C35.3937 6.57561 35.5785 6.46562 35.6552 6.66719C35.6568 6.67148 35.665 6.67401 35.6709 6.67602C35.8305 6.72951 35.9938 6.77542 36.1486 6.8395C36.2309 6.87356 36.3429 6.92604 36.3641 6.99264C36.4011 7.10869 36.4943 7.0986 36.57 7.13543C36.6005 7.15032 36.6378 7.17353 36.6478 7.20103C36.7029 7.3524 36.8503 7.43338 36.9353 7.5517C37.0046 7.64807 37.0922 7.75353 37.1518 7.8663C37.2201 7.99547 37.21 8.18594 37.3797 8.27323C37.4109 8.28938 37.4078 8.36885 37.4168 8.41981C37.4427 8.56866 37.3694 8.74122 37.5446 8.85525C37.5708 8.87241 37.561 8.94506 37.561 8.99199C37.561 10.3775 37.5602 11.7631 37.5581 13.1484C37.5581 13.2402 37.5719 13.3351 37.4498 13.389C37.4197 13.4024 37.4303 13.4978 37.4205 13.5553C37.4033 13.6557 37.4647 13.7849 37.3035 13.8351C37.2852 13.8409 37.2781 13.8989 37.2778 13.933C37.2759 14.1305 37.1743 14.272 37.0112 14.3828C36.9946 14.3941 36.9837 14.4214 36.9819 14.4423C36.9657 14.6154 36.836 14.7019 36.7063 14.7985C36.5801 14.8927 36.4729 15.0107 36.3591 15.1197C36.3426 15.1353 36.3408 15.1707 36.3233 15.1785C36.1759 15.2438 36.0258 15.3034 35.8784 15.3682C35.84 15.3851 35.8061 15.4124 35.773 15.4381C35.7556 15.4517 35.7471 15.484 35.7296 15.488C35.4964 15.541 35.2643 15.623 35.0285 15.6339C34.5398 15.6563 34.0494 15.6407 33.5353 15.6407V15.3495C33.5353 13.6915 33.5435 12.0338 33.5285 10.3758C33.5255 10.0498 33.673 9.68653 33.3585 9.40119C32.7939 9.34291 32.7855 9.34998 32.7855 9.88886C32.7855 13.9625 32.7855 18.0364 32.7855 22.11C32.7855 22.6491 32.7947 22.6567 33.3421 22.5997C33.3956 22.5462 33.439 22.5076 33.476 22.4639C33.4996 22.4362 33.529 22.4011 33.529 22.3691C33.5298 21.3451 33.5274 20.3208 33.5247 19.2968C33.5247 19.2743 33.5165 19.2519 33.5086 19.21H32.9504V16.3597H38.3148C38.3148 16.2754 38.3148 16.2068 38.3148 16.1382C38.3154 13.823 38.3146 11.5078 38.3186 9.19281C38.3186 9.04396 38.2616 8.87669 38.4297 8.7556C38.4639 8.73113 38.4422 8.64207 38.4565 8.58531C38.4877 8.46194 38.3887 8.29493 38.5888 8.22404C38.6055 8.21823 38.5975 8.15769 38.6068 8.12388C38.6248 8.05854 38.5814 7.95763 38.7132 7.95384C38.7256 7.95359 38.7468 7.91928 38.7476 7.9001C38.7545 7.72048 38.8681 7.61528 39.0152 7.5237C39.0679 7.4909 39.1222 7.4296 39.1341 7.37359C39.1767 7.17126 39.3935 7.13644 39.5105 7.00551C39.5899 6.91695 39.7656 6.90535 39.8418 6.81579C39.9586 6.6788 40.1799 6.74868 40.2693 6.58344C40.2818 6.56023 40.3461 6.5572 40.3871 6.55468C40.5173 6.5466 40.6478 6.54332 40.7781 6.53752C40.8215 6.5355 40.8786 6.54812 40.9062 6.52667C41.1521 6.33418 41.4401 6.42727 41.7077 6.42374C42.5843 6.41214 43.4612 6.41769 44.3379 6.4245C44.425 6.42525 44.5094 6.48933 44.5986 6.50775C44.7055 6.52995 44.817 6.53298 44.9258 6.54711C45.0324 6.56098 45.1645 6.50649 45.2243 6.65382C45.2333 6.67602 45.3029 6.68561 45.3442 6.6846C45.5494 6.6788 45.6838 6.7835 45.7955 6.93108C45.8077 6.94723 45.8347 6.96085 45.8556 6.96211C46.0412 6.97271 46.1269 7.10339 46.2286 7.22474C46.2908 7.29916 46.3837 7.35013 46.461 7.41395C46.4816 7.43086 46.5075 7.45457 46.5097 7.47702C46.5269 7.64807 46.655 7.74344 46.7762 7.8446C46.7889 7.8552 46.8029 7.87059 46.8053 7.88522C46.8241 7.99395 46.8906 8.08225 46.9353 8.17509C47.0428 8.39836 47.1103 8.65973 47.1116 8.90596C47.1251 11.4994 47.1232 14.0927 47.124 16.6861C47.1248 19.54 47.124 22.3938 47.124 25.2479C47.124 25.4702 47.0063 25.5814 46.7709 25.5814C45.664 25.5817 44.5573 25.5819 43.4504 25.5829C43.2116 25.5829 43.0994 25.48 43.0991 25.2544C43.0975 23.3479 43.0965 21.4414 43.0941 19.5349C43.0941 19.4353 43.0832 19.3356 43.0764 19.2165L43.0772 19.216ZM43.0954 16.3476V16.141C43.0954 14.0568 43.0954 11.9727 43.0954 9.8886C43.0954 9.35048 43.0848 9.34216 42.5224 9.40069C42.2082 9.68678 42.3546 10.0498 42.3522 10.3758C42.3381 12.2941 42.3453 14.2125 42.3453 16.1306C42.3453 16.2 42.3453 16.2694 42.3453 16.3473H43.0957L43.0954 16.3476Z" fill="white"/>
<path d="M57.1827 6.41908C57.2277 6.41908 57.2949 6.41908 57.3624 6.41908C60.7761 6.41756 64.1898 6.41605 67.6035 6.41504C68.4241 6.41504 69.2446 6.42135 70.0649 6.41554C70.206 6.41453 70.2579 6.46398 70.2576 6.58483C70.2552 7.49052 70.2518 8.39622 70.2478 9.30192C70.2478 9.32412 70.2383 9.34632 70.2295 9.38391H61.895V9.62661C61.895 14.831 61.895 20.0351 61.895 25.2394C61.895 25.4668 61.7784 25.5805 61.5453 25.5805C60.4323 25.5805 59.3193 25.5805 58.2062 25.5805C57.9784 25.5805 57.8645 25.4687 57.8645 25.245C57.8645 23.0544 57.8645 20.8636 57.864 18.673C57.864 18.5489 57.8611 18.4242 57.8505 18.3006C57.8478 18.2693 57.811 18.2408 57.7901 18.2111C57.7692 18.2408 57.7322 18.2696 57.7301 18.3004C57.7195 18.448 57.724 18.5963 57.7121 18.7439C57.7017 18.8713 57.7544 19.0166 57.6006 19.1115C57.5734 19.1284 57.5792 19.2003 57.5773 19.2469C57.5704 19.4362 57.5686 19.6256 57.5606 19.8151C57.5564 19.9165 57.5845 20.0252 57.4617 20.0974C57.4299 20.1161 57.4307 20.1953 57.4288 20.2473C57.4206 20.4602 57.4233 20.6736 57.4095 20.8863C57.4021 20.9998 57.4614 21.1411 57.2923 21.209C57.2721 21.217 57.275 21.2859 57.274 21.3268C57.2692 21.5044 57.2743 21.6822 57.261 21.8593C57.252 21.9807 57.3044 22.1245 57.1459 22.208C57.1236 22.2199 57.1289 22.2854 57.1276 22.3263C57.1218 22.5039 57.1244 22.6818 57.112 22.8589C57.1035 22.9807 57.152 23.1225 56.9969 23.2068C56.9744 23.2192 56.9799 23.2842 56.9786 23.3251C56.9728 23.5027 56.9754 23.6806 56.963 23.8577C56.9545 23.9793 57.0027 24.1206 56.8481 24.2051C56.8253 24.2174 56.8309 24.2823 56.8296 24.3231C56.824 24.4947 56.8275 24.6668 56.8142 24.8378C56.8044 24.9645 56.8502 25.1012 56.7036 25.2069C56.6528 25.2435 56.6909 25.3787 56.6612 25.4597C56.6432 25.5091 56.5736 25.5757 56.5268 25.576C55.5755 25.5828 54.6242 25.5815 53.6726 25.5803C53.5673 25.5803 53.405 25.4102 53.3987 25.2944C53.3899 25.1289 53.3944 24.9627 53.3817 24.7977C53.3711 24.6592 53.4286 24.5028 53.2692 24.3955C53.2417 24.3771 53.2488 24.3062 53.2473 24.2593C53.2396 24.0403 53.2375 23.8214 53.2271 23.6026C53.2221 23.4957 53.2555 23.3756 53.1197 23.3032C53.0932 23.289 53.0966 23.2161 53.0951 23.1702C53.0884 22.9868 53.0903 22.8031 53.0786 22.62C53.0715 22.509 53.1157 22.3788 52.9683 22.3051C52.9458 22.2938 52.9484 22.2287 52.9471 22.1881C52.941 22.0165 52.9466 21.844 52.9288 21.6737C52.9209 21.5962 52.8658 21.5241 52.8367 21.4479C52.8206 21.4052 52.8065 21.3593 52.8047 21.3144C52.796 21.0838 52.7949 20.8527 52.784 20.6221C52.7785 20.5051 52.8182 20.3741 52.6768 20.2891C52.6491 20.2725 52.6528 20.2013 52.6506 20.1549C52.6419 19.9599 52.6451 19.7639 52.6255 19.5699C52.617 19.4866 52.5604 19.4084 52.5315 19.3259C52.5143 19.2772 52.5008 19.2252 52.4987 19.1743C52.4902 18.9674 52.4887 18.76 52.4802 18.5529C52.4778 18.4916 52.4611 18.4308 52.4511 18.37C52.4272 18.3685 52.4032 18.367 52.3793 18.3655C52.3661 18.449 52.3415 18.5327 52.341 18.6162C52.3357 19.6524 52.3325 20.6882 52.332 21.7244C52.3314 22.9262 52.3341 24.1281 52.3349 25.33C52.3349 25.5028 52.1837 25.5344 52.0598 25.5725C51.981 25.5967 51.8873 25.5765 51.8002 25.5767C50.7184 25.5783 49.6366 25.5803 48.5546 25.5815C48.3102 25.5818 48.306 25.5813 48.3055 25.3446C48.3044 24.6461 48.3079 23.9475 48.3079 23.2489C48.3071 17.7544 48.3057 12.2599 48.3047 6.76546C48.3047 6.53538 48.4247 6.42034 48.6647 6.42034C50.0575 6.42034 51.4503 6.42463 52.8431 6.41529C53.0339 6.41403 53.0906 6.47206 53.0974 6.63957C53.1006 6.71475 53.161 6.78716 53.1896 6.86259C53.2081 6.91128 53.224 6.963 53.2271 7.01421C53.2361 7.1618 53.2345 7.31014 53.2438 7.45773C53.2496 7.55158 53.2118 7.66107 53.3476 7.71581C53.3727 7.72591 53.3748 7.80184 53.3772 7.84776C53.3852 8.01326 53.3796 8.18002 53.3979 8.34425C53.4058 8.4154 53.4617 8.48074 53.4908 8.55062C53.5082 8.5925 53.5236 8.63766 53.5262 8.68206C53.5352 8.8357 53.5268 8.99111 53.5477 9.14273C53.5599 9.23179 53.6173 9.31479 53.6504 9.40183C53.6647 9.43916 53.6742 9.47978 53.6763 9.51939C53.6832 9.65537 53.6853 9.7916 53.6901 9.92758C53.6914 9.96896 53.6774 10.0282 53.7004 10.0489C53.9188 10.246 53.7981 10.502 53.8388 10.7288C53.8555 10.8217 53.8105 10.9314 53.9431 10.9882C53.9693 10.9995 53.972 11.0742 53.9744 11.1201C53.9823 11.2798 53.9759 11.4405 53.9945 11.599C54.0035 11.6757 54.0585 11.7468 54.0882 11.8222C54.1049 11.8646 54.1205 11.9095 54.1231 11.9542C54.1321 12.1078 54.1326 12.2617 54.1411 12.4154C54.1464 12.511 54.1162 12.6195 54.2457 12.6767C54.2687 12.6868 54.2708 12.7509 54.2729 12.7905C54.2798 12.9204 54.2719 13.0521 54.2901 13.1805C54.3012 13.2577 54.3529 13.3294 54.3815 13.4051C54.3997 13.454 54.4172 13.5057 54.4204 13.5569C54.4296 13.7045 54.4286 13.8529 54.4373 14.0005C54.4429 14.0946 54.4077 14.2025 54.54 14.2595C54.5662 14.2709 54.5689 14.3456 54.5712 14.3915C54.5792 14.5512 54.5726 14.7119 54.5911 14.8703C54.6001 14.947 54.6549 15.0184 54.6845 15.0936C54.7012 15.136 54.7173 15.1811 54.72 15.2258C54.729 15.3794 54.7293 15.5336 54.7383 15.687C54.7438 15.7821 54.7107 15.8913 54.8423 15.9473C54.865 15.9572 54.868 16.0215 54.8701 16.0611C54.8772 16.2029 54.8748 16.3454 54.8865 16.487C54.8955 16.598 54.8666 16.7112 54.9958 16.8048C55.0532 16.8465 55.0215 16.9946 55.0397 17.0927C55.0469 17.1303 55.0808 17.1633 55.1025 17.1984C55.1239 17.1633 55.161 17.1295 55.1641 17.0929C55.1758 16.9633 55.1647 16.8313 55.184 16.7032C55.1964 16.6202 55.2499 16.5435 55.2795 16.462C55.2975 16.4128 55.3124 16.3608 55.3155 16.3094C55.3243 16.1676 55.3243 16.0253 55.3309 15.8835C55.3357 15.7816 55.332 15.69 55.4267 15.5979C55.4879 15.5384 55.4579 15.3963 55.4749 15.2921C55.4979 15.1499 55.4254 14.9849 55.5924 14.8739C55.6202 14.8554 55.6136 14.7846 55.6157 14.7379C55.6231 14.5545 55.625 14.3711 55.634 14.1876C55.639 14.088 55.5998 13.9757 55.739 13.9114C55.7703 13.897 55.7594 13.8019 55.7698 13.7444C55.805 13.5463 55.7221 13.3405 55.8902 13.1465C55.9693 13.0551 55.9098 12.8601 55.9259 12.7133C55.9405 12.5826 55.8746 12.428 56.0437 12.3341C56.0696 12.3197 56.0628 12.2456 56.0646 12.1989C56.0715 12.0273 56.0696 11.8553 56.085 11.6845C56.09 11.6292 56.1387 11.5783 56.1644 11.5238C56.1832 11.4837 56.2076 11.4418 56.2105 11.3994C56.221 11.246 56.2205 11.0919 56.2298 10.9382C56.2359 10.8366 56.2062 10.7233 56.3383 10.6585C56.364 10.6458 56.3563 10.5722 56.3648 10.5268C56.4053 10.3123 56.3089 10.0848 56.4908 9.87763C56.5636 9.79463 56.5067 9.61349 56.5233 9.47877C56.5408 9.33724 56.464 9.17149 56.6432 9.06402C56.675 9.0451 56.6602 8.95251 56.6631 8.89373C56.671 8.72217 56.6168 8.51782 56.6962 8.38638C56.8489 8.13309 56.7285 7.83741 56.8468 7.62348C57.0014 7.3437 56.9172 7.06568 56.9847 6.79649C57.0146 6.67666 57.1017 6.56969 57.1827 6.42084V6.41908Z" fill="white"/>
<path d="M74.9118 18.2186C74.9023 18.2849 74.8846 18.351 74.8848 18.4174C74.8867 19.0034 74.8033 19.6064 74.9219 20.1707C75.0267 20.67 74.9984 21.1562 75.0243 21.6476C75.0505 22.1439 75.0365 22.6421 75.0473 23.1394C75.0487 23.2022 75.0963 23.2635 75.1193 23.3268C75.1368 23.375 75.1614 23.4249 75.1622 23.4744C75.1715 24.1021 75.1752 24.7295 75.1845 25.3572C75.1868 25.5224 75.1344 25.5875 74.9386 25.5855C73.8006 25.5749 72.6625 25.5805 71.5246 25.5802C71.2641 25.5802 71.1561 25.4785 71.1561 25.2333C71.1561 20.1349 71.1561 15.0365 71.1561 9.93812C71.1561 8.86641 71.1561 7.79497 71.1561 6.72326C71.1561 6.54717 71.2895 6.41876 71.4756 6.41901C72.4891 6.41977 73.5026 6.42128 74.5164 6.4238C74.7292 6.42431 74.8681 6.55499 74.8753 6.75505C74.8793 6.86757 74.8732 6.9811 74.8893 7.09185C74.8983 7.1529 74.9454 7.20841 74.9722 7.26769C74.9907 7.30856 75.0143 7.35095 75.0177 7.39383C75.0288 7.52956 75.0233 7.66655 75.0407 7.80127C75.0484 7.86157 75.0974 7.91657 75.1241 7.9756C75.1426 8.01647 75.1643 8.05885 75.1678 8.102C75.1776 8.21981 75.1752 8.33864 75.1837 8.45671C75.1903 8.55056 75.1548 8.65904 75.2877 8.71504C75.3139 8.72614 75.3163 8.80107 75.3189 8.84699C75.3274 8.99483 75.3197 9.14418 75.3401 9.29C75.3517 9.37401 75.4065 9.45197 75.4388 9.53396C75.4534 9.57054 75.4666 9.60989 75.4687 9.64849C75.4764 9.78447 75.4785 9.92071 75.4843 10.0567C75.4862 10.0981 75.4759 10.1594 75.4997 10.177C75.6966 10.3246 75.5982 10.5327 75.6299 10.7131C75.6471 10.811 75.599 10.9248 75.7379 10.9886C75.7694 11.003 75.7591 11.0979 75.7699 11.1551C75.8075 11.3524 75.7181 11.5616 75.8922 11.7523C75.9661 11.8333 75.9116 12.0157 75.9288 12.1504C75.9462 12.2869 75.9015 12.4229 76.0394 12.5556C76.118 12.6312 76.0659 12.827 76.0794 12.968C76.0892 13.0715 76.0368 13.1964 76.19 13.2577C76.2152 13.2678 76.2165 13.3442 76.2186 13.3904C76.2255 13.5321 76.2228 13.6747 76.2347 13.8162C76.2382 13.8571 76.2789 13.8949 76.3028 13.9343C76.3224 13.8972 76.3589 13.8601 76.3591 13.823C76.361 13.4322 76.4449 13.017 76.3335 12.657C76.1847 12.1761 76.2554 11.7059 76.2276 11.2323C76.1993 10.7479 76.2173 10.2615 76.2038 9.77615C76.2014 9.68608 76.141 9.59829 76.1156 9.50747C76.0984 9.44616 76.0881 9.38107 76.0873 9.3175C76.077 8.53012 76.069 7.74249 76.0598 6.95511C76.0593 6.90213 76.0738 6.82241 76.0442 6.80046C75.8467 6.65389 76.0391 6.56105 76.0939 6.45534C76.108 6.4286 76.1786 6.41775 76.2234 6.41775C77.4174 6.41674 78.6114 6.41952 79.8052 6.41699C79.9129 6.41699 79.9494 6.4619 79.9566 6.54995C79.9613 6.60873 79.9661 6.66776 79.9661 6.7268C79.9666 12.9088 79.9666 19.091 79.9663 25.2729C79.9663 25.3204 79.9664 25.3678 79.964 25.415C79.9579 25.533 79.9094 25.585 79.7681 25.5842C78.7422 25.5777 77.7159 25.5812 76.6897 25.5802C76.4963 25.5802 76.3766 25.4687 76.366 25.2934C76.3591 25.1829 76.4031 25.0552 76.2541 24.9853C76.2313 24.9747 76.2374 24.9089 76.2294 24.8685C76.1874 24.6541 76.2887 24.4225 76.1011 24.2196C76.0365 24.15 76.0852 23.9903 76.069 23.8733C76.0481 23.7201 76.1117 23.5582 75.9513 23.4179C75.8859 23.3606 75.9364 23.1908 75.9192 23.0743C75.9012 22.9507 75.974 22.8026 75.8046 22.7117C75.7702 22.6933 75.7898 22.5894 75.7774 22.5261C75.7408 22.3406 75.8388 22.1381 75.6556 21.9657C75.5931 21.907 75.6402 21.749 75.623 21.6383C75.5974 21.4738 75.6598 21.3055 75.5045 21.1451C75.4237 21.0618 75.4798 20.861 75.4682 20.7137C75.4608 20.6203 75.501 20.5098 75.3642 20.4553C75.339 20.4452 75.3364 20.3703 75.3337 20.3246C75.3255 20.1829 75.3284 20.0403 75.3141 19.899C75.3091 19.8496 75.266 19.8039 75.2432 19.7555C75.2218 19.7098 75.1924 19.6631 75.1879 19.6152C75.1765 19.4916 75.1879 19.3655 75.1691 19.2433C75.1575 19.1664 75.1053 19.0955 75.0767 19.0201C75.0582 18.9711 75.0407 18.9194 75.0375 18.8682C75.0278 18.7088 75.0278 18.5488 75.0185 18.3891C75.0153 18.3311 74.9973 18.2738 74.9862 18.2163C74.9611 18.2173 74.9359 18.2183 74.9108 18.2193L74.9118 18.2186Z" fill="white"/>
<path d="M124 15.9988C124 19.06 124 22.1212 124 25.1825C124 25.2357 124.001 25.2892 123.999 25.3424C123.993 25.571 123.983 25.5798 123.744 25.5801C122.749 25.5801 121.754 25.5801 120.759 25.5801C120.513 25.5801 120.412 25.4776 120.394 25.2435C120.384 25.1121 120.448 24.9554 120.273 24.8618C120.245 24.8467 120.263 24.7609 120.253 24.7087C120.217 24.5116 120.312 24.3007 120.127 24.1138C120.056 24.0419 120.109 23.8628 120.096 23.7333C120.086 23.6246 120.14 23.4947 119.987 23.4245C119.961 23.4129 119.967 23.3372 119.959 23.2913C119.92 23.0822 120.014 22.8589 119.832 22.6601C119.765 22.5859 119.815 22.4194 119.799 22.2963C119.781 22.1482 119.836 21.9966 119.684 21.8574C119.612 21.7913 119.664 21.6081 119.649 21.4792C119.636 21.3657 119.694 21.2317 119.537 21.1515C119.503 21.1341 119.521 21.0294 119.508 20.9663C119.469 20.7816 119.585 20.5659 119.381 20.4113C119.354 20.3906 119.364 20.3209 119.362 20.274C119.355 20.1085 119.405 19.915 119.332 19.7831C119.189 19.5255 119.288 19.2245 119.171 19.0043C119.046 18.7691 119.09 18.5466 119.045 18.3218C119.037 18.2825 119.007 18.2474 118.988 18.2101C118.963 18.2494 118.918 18.2888 118.918 18.3282C118.917 18.861 118.83 19.4135 118.95 19.9208C119.065 20.4037 119.023 20.8717 119.051 21.3452C119.08 21.8235 119.061 22.3041 119.075 22.7835C119.078 22.8794 119.137 22.9732 119.166 23.0696C119.181 23.1198 119.19 23.173 119.191 23.225C119.2 23.9296 119.208 24.634 119.213 25.3386C119.215 25.5788 119.21 25.5806 118.969 25.5806C117.825 25.5806 116.681 25.5806 115.537 25.5806C115.316 25.5806 115.188 25.459 115.188 25.2475C115.188 19.0837 115.188 12.9197 115.188 6.7559C115.188 6.5402 115.312 6.41936 115.533 6.41936C116.54 6.4191 117.547 6.4191 118.555 6.41936C118.777 6.41936 118.895 6.53616 118.911 6.74354C118.923 6.89138 118.878 7.03997 119.023 7.18125C119.099 7.25441 119.046 7.44237 119.062 7.57734C119.08 7.72038 119.006 7.88941 119.187 7.99335C119.209 8.00597 119.194 8.07232 119.203 8.11268C119.245 8.32057 119.128 8.55544 119.336 8.73961C119.379 8.7772 119.343 8.88896 119.356 8.96414C119.386 9.12661 119.309 9.29665 119.474 9.45382C119.552 9.5285 119.499 9.72604 119.51 9.86757C119.517 9.96672 119.476 10.0807 119.61 10.1458C119.638 10.1595 119.642 10.2316 119.645 10.2775C119.654 10.4312 119.646 10.5863 119.666 10.7385C119.676 10.8157 119.731 10.8873 119.763 10.9627C119.778 10.9993 119.792 11.0384 119.794 11.0773C119.803 11.2191 119.798 11.3621 119.814 11.5026C119.822 11.5627 119.872 11.6174 119.898 11.6759C119.917 11.7168 119.939 11.7597 119.942 11.8026C119.952 11.9383 119.944 12.0756 119.962 12.2103C119.97 12.2759 120.022 12.3357 120.049 12.4002C120.069 12.4479 120.089 12.4984 120.092 12.5486C120.103 12.702 120.095 12.8574 120.114 13.0095C120.124 13.087 120.182 13.1581 120.212 13.2338C120.229 13.2757 120.243 13.3211 120.246 13.3655C120.255 13.5191 120.255 13.6733 120.266 13.8267C120.269 13.8602 120.301 13.892 120.319 13.9245C120.342 13.8902 120.385 13.8564 120.385 13.8219C120.39 13.4313 120.393 13.0405 120.385 12.65C120.382 12.4923 120.437 12.319 120.278 12.1861C120.248 12.1613 120.264 12.0841 120.263 12.0312C120.254 11.1787 120.247 10.326 120.231 9.4735C120.23 9.39429 120.174 9.31658 120.149 9.23686C120.133 9.18766 120.116 9.1362 120.116 9.08549C120.105 8.2744 120.098 7.46331 120.088 6.65221C120.087 6.49555 120.126 6.4133 120.329 6.41507C121.473 6.42541 122.617 6.42491 123.761 6.41532C123.951 6.41381 123.999 6.48823 123.999 6.63909C123.999 6.69233 123.999 6.74556 123.999 6.79904C123.999 9.86631 123.999 12.9333 123.999 16.0006L124 15.9988Z" fill="white"/>
<path d="M85.9257 18.913H85.1769V19.1262C85.1769 21.175 85.1769 23.2235 85.1769 25.2723C85.1769 25.4739 85.0697 25.5799 84.859 25.5801C83.6838 25.5809 82.5083 25.5779 81.3331 25.5837C81.1875 25.5844 81.1465 25.5282 81.1473 25.4091C81.1475 25.3677 81.1465 25.3261 81.1465 25.2847C81.1465 19.9734 81.1465 14.6623 81.1467 9.35097C81.1467 9.19707 81.146 9.04293 81.1534 8.88929C81.1576 8.802 81.1203 8.69175 81.2595 8.65693C81.268 8.65492 81.2791 8.6365 81.2772 8.62792C81.2307 8.40919 81.3641 8.23209 81.4551 8.05902C81.5239 7.92834 81.5446 7.75653 81.7039 7.67177C81.7267 7.65966 81.7211 7.60668 81.7407 7.58094C81.8228 7.47423 81.8979 7.35969 81.9969 7.26887C82.1539 7.12456 82.3275 6.99691 82.494 6.86219C82.503 6.85512 82.5099 6.84377 82.5202 6.84024C82.6775 6.78575 82.867 6.76783 82.9853 6.67096C83.1865 6.50571 83.4511 6.62227 83.6187 6.51933C83.8593 6.3715 84.0938 6.42574 84.3283 6.42321C85.2796 6.41262 86.2312 6.41766 87.1825 6.42422C87.2637 6.42473 87.3424 6.48755 87.4263 6.50445C87.539 6.52716 87.656 6.53043 87.7701 6.54809C87.8683 6.56323 88.0041 6.50016 88.0403 6.65759C88.0419 6.6649 88.0599 6.6702 88.0711 6.67424C88.2285 6.72772 88.3929 6.76809 88.5417 6.83822C88.6682 6.89776 88.7791 6.98909 88.8932 7.07133C88.9795 7.13365 89.061 7.20227 89.1417 7.27114C89.1655 7.29158 89.1788 7.32286 89.1986 7.34783C89.2889 7.46136 89.3797 7.57439 89.4707 7.68741C89.4776 7.69599 89.4922 7.70053 89.4959 7.70961C89.5541 7.85291 89.5848 8.01487 89.6753 8.13597C89.7907 8.29011 89.7473 8.50708 89.8392 8.61379C89.9964 8.79645 89.9504 8.97582 89.9504 9.15393C89.9562 14.5422 89.9554 19.9305 89.9554 25.3185C89.9554 25.5801 89.9535 25.5801 89.6783 25.5801C88.5464 25.5801 87.4149 25.5801 86.2831 25.5801C86.0229 25.5801 85.9255 25.4865 85.9255 25.239C85.9255 23.2082 85.9255 21.1773 85.9255 19.1461V18.9128L85.9257 18.913ZM85.9173 15.9333C85.9204 15.8649 85.9255 15.8069 85.9255 15.7491C85.9257 13.7662 85.9257 11.7832 85.9255 9.80054C85.9255 9.7473 85.9435 9.68247 85.9183 9.64311C85.8612 9.55279 85.7984 9.42766 85.7095 9.40016C85.3979 9.30379 85.1775 9.47181 85.1772 9.77733C85.1767 11.7721 85.1769 13.7667 85.1767 15.7615C85.1767 15.8183 85.1767 15.875 85.1767 15.9336H85.917L85.9173 15.9333Z" fill="white"/>
<path d="M114.133 15.9806C114.133 18.3901 114.133 20.7994 114.132 23.209C114.132 23.32 114.161 23.4406 114.024 23.5196C113.989 23.5397 114.001 23.6301 113.986 23.6868C113.965 23.7665 114.031 23.8904 113.871 23.9035C113.866 23.9038 113.858 23.9126 113.859 23.9159C113.895 24.0849 113.732 24.1732 113.679 24.3067C113.637 24.4111 113.555 24.5037 113.479 24.5923C113.406 24.6773 113.322 24.7557 113.234 24.8271C113.145 24.8995 113.045 24.9596 112.95 25.0257C112.843 25.1009 112.736 25.1768 112.629 25.2538C112.616 25.2636 112.61 25.2886 112.597 25.2921C112.389 25.3471 112.182 25.4079 111.972 25.4503C111.821 25.4806 111.653 25.4233 111.526 25.5636C111.498 25.5951 111.407 25.5792 111.346 25.5792C110.314 25.5802 109.281 25.5822 108.249 25.5764C108.161 25.5759 108.075 25.5121 107.985 25.4944C107.871 25.4722 107.753 25.4737 107.638 25.4531C107.501 25.4283 107.322 25.5202 107.24 25.3274C107.233 25.3115 107.169 25.3201 107.134 25.312C107.064 25.2964 106.96 25.3357 106.955 25.2116C106.955 25.2003 106.931 25.1806 106.918 25.1801C106.716 25.1733 106.606 25.0555 106.491 24.9094C106.391 24.7832 106.191 24.7232 106.108 24.5923C106 24.4227 105.763 24.3314 105.769 24.0953C105.515 24.0087 105.727 23.6992 105.497 23.5811C105.445 23.5541 105.486 23.3788 105.464 23.2753C105.445 23.1858 105.397 23.1023 105.365 23.015C105.352 22.9774 105.34 22.937 105.339 22.8974C105.334 22.7614 105.334 22.6252 105.334 22.489C105.334 18.1732 105.332 13.8571 105.338 9.54127C105.338 9.32532 105.261 9.09599 105.447 8.88963C105.511 8.81823 105.461 8.6598 105.479 8.54324C105.488 8.4837 105.53 8.4282 105.56 8.37194C105.571 8.35176 105.604 8.33183 105.601 8.31719C105.554 8.10174 105.753 7.96602 105.794 7.77705C105.812 7.69304 105.899 7.61938 105.964 7.54823C106.043 7.46069 106.128 7.37744 106.217 7.29797C106.291 7.23137 106.373 7.17309 106.451 7.11052C106.524 7.05098 106.596 6.98892 106.671 6.93064C106.715 6.89583 106.764 6.86581 106.812 6.83427C106.864 6.79971 106.918 6.76615 106.97 6.73134C106.979 6.72528 106.983 6.70889 106.992 6.70611C107.177 6.65263 107.361 6.59233 107.549 6.5507C107.722 6.51236 107.922 6.59157 108.072 6.4339C108.099 6.40539 108.179 6.41952 108.235 6.41952C109.273 6.41901 110.312 6.41699 111.35 6.42305C111.438 6.42355 111.524 6.48183 111.613 6.50529C111.683 6.52371 111.757 6.52674 111.829 6.54112C112.009 6.57745 112.231 6.46745 112.361 6.67937C112.365 6.68593 112.385 6.68542 112.397 6.68593C112.666 6.6935 112.842 6.89003 113.056 7.00128C113.199 7.07596 113.281 7.25382 113.4 7.37719C113.468 7.44808 113.559 7.49929 113.634 7.56539C113.658 7.58582 113.663 7.62543 113.675 7.65672C113.703 7.72483 113.662 7.83508 113.801 7.83609C113.811 7.83609 113.825 7.88377 113.83 7.91051C113.846 7.99679 113.814 8.10906 113.961 8.12193C113.964 8.12218 113.967 8.13177 113.969 8.13732C114.023 8.34822 114.123 8.55863 114.125 8.77004C114.142 10.3743 114.141 11.9786 114.143 13.5829C114.145 14.3821 114.143 15.1813 114.143 15.9806C114.14 15.9806 114.136 15.9806 114.132 15.9806H114.133ZM110.098 9.39899H109.553C109.22 9.73023 109.371 10.1286 109.37 10.4919C109.358 14.2512 109.361 18.0104 109.366 21.7697C109.366 22.0545 109.265 22.3681 109.555 22.5957H110.098V9.39899H110.098Z" fill="white"/>
<path d="M93.0935 9.38158C93.0014 9.38158 92.9345 9.38158 92.8675 9.38158C92.277 9.38158 91.6862 9.38158 91.0957 9.38158C90.7751 9.38158 90.7031 9.31245 90.7031 9.00441C90.7031 8.24075 90.7031 7.47709 90.7031 6.71343C90.7031 6.54515 90.8334 6.42027 91.0149 6.42002C93.7876 6.41926 96.5602 6.42027 99.3331 6.41699C99.4559 6.41699 99.5033 6.45988 99.5088 6.56609C99.511 6.60747 99.5131 6.64884 99.5131 6.69022C99.5131 7.49525 99.5139 8.30029 99.5123 9.10533C99.5123 9.19211 99.4985 9.2789 99.4898 9.38183H97.1229C97.1229 9.47417 97.1229 9.54859 97.1229 9.62327C97.1229 14.8266 97.1229 20.03 97.1229 25.2333C97.1229 25.4639 97.0027 25.5792 96.7622 25.5792C95.6555 25.5792 94.5491 25.5792 93.4424 25.5792C93.214 25.5792 93.0935 25.4652 93.0935 25.2507C93.0935 20.0534 93.0935 14.8559 93.0935 9.65859V9.38183V9.38158Z" fill="white"/>
<path d="M66.6882 22.6164H70.2369C70.2456 22.7175 70.2594 22.8041 70.2597 22.8908C70.2612 23.6959 70.261 24.5012 70.2604 25.3062C70.2604 25.5802 70.2589 25.5802 69.9748 25.5802C67.6683 25.5802 65.3618 25.5802 63.055 25.5802C62.7239 25.5802 62.6458 25.5045 62.6456 25.1849C62.6445 22.5682 62.6421 19.9517 62.6427 17.3351C62.6429 15.3816 62.6472 13.4282 62.6493 11.475C62.6498 10.9785 62.6493 10.482 62.6493 9.96585C62.7522 9.95853 62.8489 9.94592 62.9452 9.94566C63.5545 9.9439 64.1638 9.94793 64.7729 9.94188C64.8806 9.94087 64.9878 9.90101 65.0813 9.88184C65.2271 9.90479 65.3682 9.94289 65.51 9.94617C65.8883 9.95525 66.2668 9.9492 66.6702 9.9492V14.5102C66.7861 14.5153 66.8777 14.5228 66.9693 14.5231C67.6967 14.5241 68.424 14.5231 69.1514 14.5239C69.3909 14.5241 69.5058 14.6318 69.5058 14.8516C69.5058 15.6271 69.5058 16.4026 69.5058 17.1781C69.5058 17.3813 69.3967 17.483 69.1784 17.4831C68.4447 17.4831 67.7112 17.4831 66.9775 17.4831C66.8851 17.4831 66.7927 17.4831 66.6874 17.4831V22.6166L66.6882 22.6164Z" fill="white"/>
<path d="M104.291 16.0056C104.291 19.0837 104.291 22.1619 104.291 25.24C104.291 25.466 104.174 25.579 103.939 25.579C102.832 25.579 101.726 25.579 100.619 25.579C100.389 25.579 100.263 25.4574 100.263 25.2362C100.263 19.08 100.263 12.9237 100.263 6.7675C100.263 6.53061 100.38 6.4196 100.632 6.4196C101.776 6.4196 102.92 6.42389 104.064 6.41506C104.246 6.41355 104.293 6.48268 104.29 6.6295C104.289 6.68274 104.29 6.73597 104.29 6.7892C104.29 9.86151 104.29 12.9336 104.29 16.0059L104.291 16.0056Z" fill="white"/>
<path d="M2.0459 16.922C2.15551 16.9467 2.23566 17.0946 2.17886 17.175C2.16586 17.1932 2.12578 17.2076 2.10349 17.2025C2.08305 17.1978 2.05758 17.1655 2.05545 17.1438C2.04855 17.0688 2.05121 16.9934 2.05014 16.918L2.0459 16.922Z" fill="#FF0000"/>
<path d="M9.66935 21.6259C9.67834 21.5789 9.67992 21.4952 9.69763 21.4919C9.76663 21.4795 9.8409 21.4904 9.91227 21.499C9.92232 21.5002 9.93765 21.5398 9.93236 21.5567C9.92708 21.5736 9.90064 21.5926 9.88082 21.5958C9.80918 21.6072 9.73623 21.6125 9.66406 21.6203C9.66433 21.6206 9.66935 21.6261 9.66935 21.6261V21.6259Z" fill="#FF0000"/>
<path d="M43.0949 16.3479H42.3445C42.3445 16.27 42.3445 16.2006 42.3445 16.1312C42.3445 14.2128 42.3373 12.2945 42.3513 10.3764C42.3537 10.0504 42.2073 9.68712 42.5215 9.40128C43.0843 9.3425 43.0946 9.35082 43.0946 9.8892C43.0946 11.9733 43.0946 14.0574 43.0946 16.1415V16.3482L43.0949 16.3479Z" fill="black"/>
<path d="M85.9171 15.9331H85.1768C85.1768 15.8746 85.1768 15.8178 85.1768 15.7611C85.1768 13.7663 85.1768 11.7717 85.1773 9.77689C85.1773 9.47138 85.398 9.30336 85.7096 9.39973C85.7985 9.42723 85.8612 9.55236 85.9184 9.64268C85.9436 9.68229 85.9256 9.74687 85.9256 9.8001C85.9256 11.7831 85.9256 13.766 85.9256 15.7487C85.9256 15.8067 85.9205 15.8645 85.9174 15.9329L85.9171 15.9331Z" fill="black"/>
<path d="M110.097 9.39893V22.5956H109.554C109.264 22.3681 109.366 22.0545 109.365 21.7697C109.361 18.0104 109.358 14.2511 109.369 10.4918C109.37 10.1288 109.219 9.73017 109.552 9.39893H110.097H110.097Z" fill="black"/>
<path d="M19.2399 22.645C19.2267 22.7037 19.2304 22.7465 19.2099 22.7684C19.0936 22.8933 18.9742 23.0158 18.8509 23.1342C18.7479 23.2331 18.6355 23.3229 18.5317 23.4212C18.4997 23.4516 18.4856 23.4993 18.4564 23.5335C18.4225 23.5733 18.3846 23.611 18.3422 23.6419C18.2617 23.7006 18.1709 23.7472 18.0952 23.8106C17.9644 23.9198 17.8406 24.0373 17.716 24.1532C17.6793 24.1872 17.6332 24.223 17.6193 24.2662C17.5704 24.4194 17.3488 24.3428 17.3044 24.4967C17.3019 24.5057 17.2783 24.5146 17.2648 24.5141C16.9518 24.5042 16.6745 24.7108 16.3513 24.6512C16.2762 24.6375 16.1813 24.6274 16.1317 24.7311C16.1201 24.7557 16.0451 24.7581 15.9989 24.7596C15.7746 24.7665 15.5498 24.7649 15.326 24.7757C15.1997 24.7817 15.0591 24.7371 14.9572 24.8651C14.9372 24.8903 14.866 24.8806 14.8184 24.8808C14.3482 24.8819 13.8778 24.885 13.4078 24.8782C13.3325 24.8771 13.2583 24.8278 13.1826 24.8051C13.138 24.7916 13.0909 24.7799 13.0447 24.7786C12.8045 24.7715 12.5638 24.7726 12.3236 24.7614C12.2196 24.7565 12.1263 24.749 12.0201 24.6788C11.9175 24.6111 11.7332 24.6583 11.5847 24.6587C11.5742 24.6587 11.5515 24.6943 11.556 24.7047C11.5644 24.7241 11.5865 24.7477 11.6063 24.7512C11.6636 24.7616 11.7253 24.7545 11.7805 24.77C11.8295 24.7837 11.8727 24.8172 11.917 24.8442C11.9289 24.8515 11.938 24.8777 11.9446 24.8764C12.1372 24.8398 12.2774 24.9815 12.4494 25.0135C12.5451 25.0314 12.6623 24.9788 12.7221 25.1131C12.7337 25.1391 12.8313 25.1281 12.8886 25.1369C13.0165 25.1563 13.1657 25.0943 13.2638 25.2365C13.2797 25.2594 13.3441 25.2544 13.3864 25.2557C13.5413 25.2612 13.6962 25.2612 13.8509 25.2694C13.9515 25.2747 14.0632 25.2422 14.136 25.3583C14.1528 25.3853 14.2356 25.3782 14.2879 25.3786C14.6888 25.3822 15.0896 25.3817 15.4902 25.3884C15.5437 25.3892 15.5967 25.4228 15.6497 25.4411C15.6026 25.4669 15.5555 25.4928 15.5084 25.5186C15.4709 25.5394 15.4331 25.5601 15.3956 25.5811C15.3635 25.599 15.3339 25.6235 15.2996 25.6341C15.2313 25.655 15.1296 25.6129 15.1169 25.7327C15.116 25.7407 15.0919 25.7506 15.0778 25.7524C14.9779 25.7645 14.8976 25.801 14.8059 25.8533C14.6451 25.9449 14.4385 25.9595 14.2531 26.0131C14.1962 26.0297 14.1482 26.0736 14.0923 26.095C14.0406 26.1149 13.984 26.123 13.9292 26.1334C13.8068 26.1564 13.673 26.1025 13.5679 26.2396C13.529 26.2904 13.3739 26.2495 13.2751 26.2674C13.2051 26.2802 13.1412 26.3231 13.0731 26.3495C13.0404 26.3623 13.0053 26.3745 12.9708 26.3765C12.8481 26.3831 12.7242 26.3771 12.6029 26.3922C12.5381 26.4001 12.4785 26.4436 12.4146 26.4663C12.3711 26.482 12.3245 26.4992 12.2792 26.4992C11.3067 26.5005 10.3344 26.5003 9.36188 26.4975C9.31888 26.4975 9.27498 26.4736 9.23312 26.4571C9.18307 26.4372 9.13644 26.399 9.08571 26.3939C8.95854 26.3813 8.82956 26.386 8.70171 26.3782C8.61071 26.3727 8.50675 26.3999 8.45124 26.2862C8.441 26.2652 8.37412 26.2714 8.33386 26.2628C8.19441 26.2328 8.02151 26.3195 7.91937 26.1489C7.90845 26.1308 7.84839 26.1425 7.81154 26.1367C7.71122 26.1211 7.58769 26.1738 7.52695 26.0339C7.51672 26.01 7.42754 26.0202 7.37545 26.0111C7.29491 25.9972 7.1864 26.0436 7.15637 25.914C7.15342 25.9012 7.09882 25.9003 7.06856 25.8928C6.96574 25.8674 6.82697 25.9303 6.77351 25.7767C6.7685 25.7621 6.70094 25.7742 6.66773 25.7612C6.61745 25.7411 6.57195 25.7098 6.52464 25.6828C6.50371 25.6709 6.48414 25.6502 6.4623 25.648C6.37063 25.6387 6.30579 25.6166 6.22822 25.5429C6.13517 25.4544 5.95023 25.4621 5.84262 25.3813C5.73275 25.2985 5.566 25.3135 5.49639 25.176C5.49206 25.1674 5.48069 25.1537 5.47614 25.1548C5.31166 25.1996 5.24637 25.0208 5.10442 25.0011C5.02526 24.9901 4.91356 24.9351 4.88967 24.8733C4.84622 24.761 4.75955 24.7821 4.68379 24.7521C4.62055 24.727 4.56345 24.6806 4.51295 24.6342C4.44925 24.576 4.39557 24.5071 4.33551 24.445C4.31913 24.428 4.29593 24.4106 4.2734 24.4068C4.12895 24.3828 4.04705 24.2859 3.96174 24.1819C3.90897 24.1174 3.82457 24.0779 3.75746 24.0238C3.71173 23.987 3.67306 23.9419 3.62847 23.904C3.48766 23.7839 3.34457 23.6662 3.20421 23.5457C3.09501 23.4518 2.98718 23.3567 2.88231 23.2584C2.85455 23.2324 2.84386 23.19 2.81884 23.1602C2.7465 23.0746 2.67211 22.9904 2.59567 22.9081C2.54312 22.8514 2.48125 22.8024 2.43256 22.743C2.37774 22.6763 2.34657 22.5608 2.2806 22.5405C2.17322 22.5072 2.19165 22.4324 2.1598 22.3701C2.12613 22.3048 2.08428 22.2407 2.034 22.1867C1.97554 22.1237 1.90274 22.0736 1.83859 22.0156C1.8213 21.9999 1.80333 21.9767 1.80105 21.9555C1.7849 21.8072 1.68458 21.7175 1.5722 21.635C1.5681 21.6319 1.5631 21.6284 1.56128 21.6239C1.506 21.4999 1.45754 21.3723 1.3943 21.2522C1.33447 21.1387 1.25986 21.0325 1.19024 20.9239C1.18274 20.9124 1.16022 20.9084 1.15544 20.897C1.10516 20.7716 1.0906 20.6104 0.999836 20.5279C0.881542 20.4203 0.950471 20.2338 0.793048 20.1627C0.779172 20.1565 0.76939 20.1303 0.767797 20.1124C0.75938 20.0194 0.777807 19.9155 0.650413 19.879C0.675437 19.7024 0.561237 19.5662 0.508915 19.4115C0.478886 19.3227 0.54463 19.1982 0.396535 19.1545C0.383568 19.1508 0.38789 19.0967 0.381293 19.0666C0.358317 18.9607 0.411094 18.8437 0.277786 18.7527C0.225236 18.717 0.257539 18.5673 0.246392 18.4699C0.238203 18.3988 0.270734 18.313 0.162904 18.2743C0.140155 18.2662 0.131738 18.2017 0.129235 18.1624C0.121273 18.0333 0.128553 17.9023 0.110809 17.7747C0.0998893 17.6959 0.0525715 17.6222 0.0255003 17.5449C0.012306 17.5072 0.001159 17.4663 0.000931511 17.427C-0.000433423 16.4738 -0.000433424 15.5208 0.00184147 14.5675C0.00184147 14.5258 0.0257278 14.4834 0.042107 14.4426C0.0637185 14.3885 0.103529 14.3375 0.109899 14.2823C0.123548 14.1642 0.116723 14.0443 0.125823 13.9256C0.13242 13.839 0.0973869 13.7384 0.219776 13.6845C0.245937 13.673 0.236838 13.5898 0.247075 13.5403C0.273008 13.4152 0.187473 13.2571 0.361274 13.1734C0.371739 13.1683 0.366734 13.1346 0.370601 13.1143C0.392213 12.9977 0.333521 12.8542 0.488441 12.7822C0.441805 12.5767 0.633351 12.4326 0.638583 12.2376C0.639948 12.1853 0.693181 12.1341 0.723664 12.0831C0.728214 12.0754 0.743911 12.0727 0.746868 12.0652C0.795778 11.9327 0.835361 11.7963 0.893599 11.6678C0.949333 11.5444 1.02372 11.429 1.0906 11.3104C1.09788 11.2974 1.11517 11.289 1.12063 11.2758C1.17387 11.146 1.18933 10.9696 1.28693 10.8969C1.40818 10.8066 1.33993 10.6239 1.50099 10.581C1.51351 10.5777 1.52511 10.5479 1.52556 10.53C1.5292 10.3744 1.64568 10.2945 1.75169 10.2068C1.76579 10.1951 1.77944 10.1748 1.78035 10.1578C1.78991 9.99954 1.91116 9.92493 2.01648 9.82801C2.09383 9.75693 2.12363 9.63904 2.18232 9.54676C2.226 9.47811 2.27787 9.41298 2.33383 9.35294C2.44689 9.23174 2.56633 9.11606 2.68098 8.99641C2.80542 8.8666 2.92826 8.73525 3.05065 8.60367C3.15143 8.49506 3.24356 8.37805 3.35253 8.27805C3.43101 8.20608 3.53452 8.1606 3.6196 8.09482C3.69763 8.03433 3.7661 7.96258 3.83822 7.89503C3.88417 7.85198 3.92444 7.80165 3.97517 7.76522C4.05774 7.70584 4.14715 7.65484 4.23359 7.60031C4.3139 7.54976 4.40694 7.51113 4.472 7.44622C4.56868 7.34953 4.64467 7.24312 4.80163 7.22016C4.87124 7.21001 4.97202 7.14886 4.98817 7.09212C5.03276 6.93516 5.2673 7.04135 5.28619 6.86981C5.28687 6.86452 5.33669 6.86717 5.36239 6.86121C5.42313 6.84708 5.51163 6.87158 5.51072 6.76562C5.51072 6.75855 5.52186 6.74773 5.53005 6.74464C5.65836 6.69608 5.82306 6.68084 5.90632 6.59298C6.01574 6.4773 6.20979 6.54221 6.28077 6.38679C6.28759 6.372 6.32558 6.36869 6.35015 6.36405C6.42704 6.3497 6.52941 6.38237 6.54534 6.25787C6.54647 6.24948 6.59288 6.24594 6.61836 6.24109C6.69389 6.22608 6.78943 6.26206 6.82401 6.1455C6.83084 6.12276 6.92024 6.12298 6.97188 6.11327C7.05264 6.09781 7.15774 6.14152 7.193 6.01481C7.19823 5.99582 7.28013 5.99759 7.32631 5.98854C7.41594 5.97088 7.53901 6.02894 7.57427 5.88588C7.57564 5.88014 7.59247 5.87617 7.60248 5.87418C7.82405 5.82893 8.04517 5.78146 8.26743 5.73996C8.35092 5.72451 8.44624 5.75828 8.50061 5.65276C8.5138 5.62715 8.58796 5.62516 8.6346 5.62252C8.76791 5.61523 8.90258 5.62163 9.03452 5.60618C9.10527 5.59779 9.17102 5.55386 9.24017 5.52935C9.27862 5.51589 9.31957 5.50088 9.35938 5.50088C10.3426 5.49955 11.3256 5.49933 12.3088 5.50308C12.3531 5.50308 12.3966 5.54238 12.4416 5.56114C12.4833 5.57836 12.5256 5.60243 12.569 5.60574C12.6859 5.61479 12.8049 5.60618 12.9209 5.62097C12.9851 5.62914 13.0438 5.67263 13.1068 5.69493C13.1555 5.71214 13.2069 5.72318 13.2579 5.734C13.423 5.7691 13.6205 5.67263 13.7526 5.85321C13.7683 5.87462 13.8345 5.85873 13.8766 5.86491C13.9676 5.87794 14.0836 5.82694 14.1287 5.96403C14.1346 5.98214 14.2069 5.97927 14.2483 5.98699C14.343 6.00443 14.4665 5.94924 14.5141 6.09119C14.5193 6.10686 14.5832 6.10223 14.6189 6.11062C14.7122 6.13247 14.8425 6.07022 14.8821 6.22056C14.8851 6.23204 14.9415 6.2285 14.972 6.23557C15.0366 6.25036 15.1324 6.21239 15.1406 6.32696C15.141 6.33447 15.1528 6.34462 15.1615 6.34772C15.2955 6.39474 15.4345 6.4316 15.5632 6.48944C15.6863 6.54485 15.7991 6.62168 15.9161 6.68989C15.9245 6.69475 15.9274 6.70932 15.9359 6.71263C16.0646 6.76407 16.1972 6.80756 16.3219 6.86695C16.4366 6.92169 16.5437 6.99168 16.6524 7.05768C16.7512 7.11729 16.8504 7.17667 16.9443 7.24312C17.0278 7.30207 17.1026 7.37205 17.1843 7.43386C17.261 7.4917 17.3397 7.54733 17.4205 7.59965C17.5076 7.65617 17.6054 7.69943 17.685 7.7639C17.8176 7.87097 17.9405 7.98951 18.0649 8.10586C18.0993 8.13809 18.1195 8.18467 18.1546 8.21579C18.3593 8.39638 18.633 8.50587 18.7442 8.78403C18.7729 8.85578 18.8646 8.90302 18.9248 8.96395C18.9883 9.0282 19.0486 9.09531 19.1105 9.16109C19.1692 9.22379 19.2267 9.28737 19.2872 9.3483C19.3486 9.41011 19.4235 9.46199 19.4731 9.53153C19.5343 9.61741 19.5677 9.72183 19.6278 9.80859C19.6735 9.87481 19.7445 9.92426 19.7995 9.98497C19.8289 10.0174 19.8484 10.058 19.8721 10.0951C19.9483 10.2159 20.0443 10.3294 20.0941 10.4596C20.1369 10.5715 20.2575 10.621 20.2777 10.7583C20.2948 10.8744 20.4106 10.9771 20.4834 11.0855C20.4884 11.0932 20.5029 11.0958 20.5059 11.1036C20.5557 11.2309 20.6039 11.3592 20.654 11.4866C20.666 11.5171 20.6829 11.5458 20.699 11.5745C20.7231 11.6171 20.7482 11.659 20.7736 11.7007C20.8016 11.7469 20.8301 11.7926 20.8592 11.838C20.8694 11.8539 20.8903 11.8674 20.8926 11.8837C20.906 11.9807 20.9418 12.0586 20.9959 12.1482C21.0903 12.3043 21.1058 12.5045 21.1613 12.6842C21.1783 12.7394 21.2236 12.786 21.2457 12.8405C21.2662 12.8906 21.2748 12.9456 21.285 12.999C21.3078 13.118 21.2539 13.2485 21.3951 13.3489C21.4447 13.384 21.4042 13.5273 21.4229 13.6178C21.4379 13.6907 21.4814 13.7576 21.5096 13.8282C21.5223 13.8602 21.5341 13.8942 21.5362 13.928C21.5428 14.0417 21.5357 14.1569 21.5517 14.2691C21.5612 14.3373 21.6058 14.4006 21.6299 14.4675C21.6454 14.5101 21.6615 14.5556 21.6615 14.5998C21.6631 15.5323 21.6636 16.4648 21.659 17.397C21.6588 17.45 21.6138 17.5023 21.5915 17.5558C21.5765 17.592 21.556 17.6288 21.5535 17.6664C21.5448 17.7902 21.5496 17.9154 21.5355 18.0386C21.5294 18.0913 21.485 18.139 21.4661 18.1915C21.4459 18.2474 21.4347 18.3063 21.4206 18.3642C21.3913 18.4843 21.4743 18.6339 21.3128 18.7227C21.2875 18.7366 21.2939 18.8099 21.2912 18.856C21.2775 19.0761 21.2154 19.143 20.9879 19.1797C20.9627 19.1836 20.9188 19.1885 20.9165 19.1998C20.8876 19.3304 20.7773 19.2808 20.6977 19.2969C20.626 19.3112 20.5286 19.277 20.5107 19.392C20.5095 19.3991 20.4941 19.4106 20.4881 19.4093C20.2802 19.3605 20.1323 19.53 19.9424 19.551C19.8782 19.5581 19.8184 19.6046 19.7572 19.6342C19.7397 19.6428 19.7249 19.6636 19.7079 19.6647C19.6062 19.6711 19.5329 19.7066 19.4428 19.7687C19.3088 19.8609 19.1164 19.872 18.9505 19.9228C18.908 19.9358 18.8714 19.9669 18.8329 19.9912C18.8204 19.9991 18.8095 20.0232 18.8011 20.0219C18.6102 19.9907 18.4696 20.1199 18.3108 20.1784C18.1637 20.2325 18.0119 20.2755 17.8709 20.3329C17.8017 20.361 17.6982 20.3833 17.6554 20.4285C17.5503 20.5396 17.3661 20.4892 17.2862 20.6257C17.2815 20.6338 17.2712 20.6415 17.2619 20.6444C17.1015 20.6948 16.94 20.742 16.7808 20.7959C16.7394 20.81 16.7055 20.8451 16.6679 20.87C16.6481 20.8833 16.6286 20.9036 16.607 20.9067C16.5187 20.919 16.4523 20.9325 16.3733 21.0076C16.2769 21.099 16.1042 21.1166 15.9625 21.1603C15.8895 21.1829 15.7816 21.1369 15.7657 21.2623C15.7652 21.2661 15.7593 21.2707 15.755 21.272C15.6071 21.3188 15.4581 21.3628 15.3114 21.4133C15.2493 21.4347 15.192 21.4696 15.1333 21.4994C15.1253 21.5036 15.1226 21.5193 15.1149 21.5219C14.9704 21.5681 14.8264 21.6164 14.6803 21.6573C14.6019 21.6791 14.4911 21.6266 14.4626 21.7544C14.4613 21.7608 14.4458 21.7665 14.436 21.7688C14.2256 21.8164 14.0156 21.865 13.8045 21.9098C13.7224 21.9273 13.6223 21.8871 13.5759 22.0041C13.5663 22.0281 13.4794 22.0229 13.4282 22.0317C13.2974 22.0542 13.1443 21.9862 13.0424 22.1379C13.0213 22.1694 12.9203 22.1458 12.8577 22.1566C12.7048 22.1831 12.5244 22.0986 12.4036 22.265C12.3898 22.2842 12.3327 22.2754 12.2954 22.2765C12.1138 22.2818 11.9316 22.2789 11.751 22.2942C11.6748 22.3006 11.6029 22.3469 11.5276 22.3714C11.4887 22.3842 11.4468 22.3959 11.4063 22.3962C10.7384 22.3973 10.0703 22.3986 9.40237 22.3928C9.34368 22.3924 9.28635 22.3421 9.22675 22.3191C9.18922 22.3048 9.14872 22.2915 9.10891 22.2895C8.9756 22.2829 8.84138 22.2869 8.70853 22.2763C8.61162 22.2688 8.51039 22.3045 8.42849 22.1862C8.39346 22.1357 8.23808 22.1661 8.13799 22.1542C8.06064 22.1449 7.96077 22.1847 7.92438 22.0692C7.91983 22.0551 7.87956 22.0478 7.85454 22.044C7.72601 22.0242 7.60862 22.0173 7.48123 21.9394C7.3188 21.8401 7.09882 21.8299 6.90477 21.7771C6.86564 21.7665 6.83061 21.739 6.79603 21.7158C6.78511 21.7085 6.77965 21.6776 6.77578 21.6782C6.61358 21.7092 6.52691 21.5515 6.38428 21.5308C6.34378 21.5248 6.30875 21.4851 6.27099 21.4615C6.2471 21.4464 6.2239 21.4275 6.19751 21.4195C6.12539 21.3981 6.02257 21.4394 6.00164 21.3116C5.99891 21.2954 5.86628 21.2974 5.79394 21.2979C5.78825 21.2979 5.76846 21.3674 5.77938 21.3762C5.8474 21.431 5.92065 21.4802 5.9955 21.5259C6.0874 21.582 6.22253 21.6122 6.26553 21.6915C6.30852 21.7701 6.36266 21.7621 6.4159 21.7913C6.5028 21.8385 6.58151 21.8999 6.66386 21.9553C6.70071 21.98 6.73711 22.0054 6.77487 22.0288C6.86951 22.0873 6.9646 22.1449 7.05946 22.203C7.09996 22.2277 7.1409 22.252 7.18072 22.2778C7.22576 22.307 7.26944 22.3379 7.31402 22.3675C7.33017 22.3783 7.34633 22.3937 7.36407 22.3964C7.45188 22.4096 7.51945 22.4174 7.59474 22.5023C7.67459 22.5924 7.84385 22.6068 7.97238 22.658C8.00968 22.673 8.0429 22.6993 8.07566 22.7233C8.0868 22.7315 8.08794 22.7564 8.09863 22.76C8.24172 22.8085 8.38481 22.8575 8.52973 22.9004C8.60025 22.9211 8.69693 22.8858 8.719 22.9986C8.72127 23.0103 8.76245 23.0194 8.78633 23.0222C8.87096 23.0324 8.96855 23.0092 9.00404 23.1258C9.00882 23.1412 9.07206 23.1401 9.10823 23.1465C9.20832 23.164 9.3314 23.1132 9.391 23.2523C9.40101 23.2759 9.49041 23.266 9.54251 23.2746C9.62349 23.2878 9.727 23.2448 9.76476 23.371C9.77091 23.392 9.86236 23.388 9.914 23.3975C10.04 23.4205 10.1881 23.3543 10.2853 23.505C10.3069 23.5386 10.4172 23.5141 10.4852 23.5245C10.5887 23.5401 10.7136 23.4927 10.7814 23.6256C10.793 23.6483 10.8704 23.6382 10.917 23.6457C11.0965 23.6746 11.3012 23.5865 11.4518 23.7583C11.4687 23.7775 11.5237 23.7666 11.561 23.7675C11.7212 23.7713 11.8818 23.7713 12.0417 23.7786C12.1486 23.7836 12.2658 23.7552 12.3459 23.8671C12.3622 23.89 12.4259 23.8865 12.4678 23.8865C13.1787 23.8876 13.8894 23.8889 14.6003 23.8848C14.6551 23.8845 14.7086 23.8404 14.7645 23.8214C14.8132 23.8048 14.8639 23.7863 14.9144 23.7841C15.1064 23.7757 15.2993 23.7783 15.4911 23.7671C15.5958 23.7609 15.7036 23.7872 15.7937 23.6746C15.833 23.6256 15.9761 23.6596 16.0705 23.6457C16.1931 23.6273 16.331 23.6872 16.4331 23.5448C16.4657 23.4995 16.6072 23.5362 16.6945 23.5167C16.7746 23.4991 16.8474 23.4529 16.9259 23.4267C16.9741 23.4106 17.0274 23.4086 17.0781 23.3989C17.1675 23.3816 17.2883 23.4406 17.329 23.2988C17.3329 23.2856 17.3875 23.2867 17.4184 23.2803C17.5269 23.2578 17.6641 23.3178 17.7307 23.1686C17.7403 23.1472 17.8208 23.1569 17.8679 23.1496C17.95 23.137 18.0565 23.1761 18.0881 23.0498C18.0913 23.037 18.1448 23.0366 18.1748 23.0295C18.244 23.0132 18.3452 23.0558 18.3586 22.9355C18.3593 22.9289 18.3741 22.9216 18.3839 22.9187C18.5499 22.869 18.716 22.8198 18.8825 22.7708C18.9073 22.7635 18.9524 22.7631 18.9551 22.7518C18.9947 22.5946 19.1191 22.6701 19.2417 22.6467L19.2399 22.645ZM7.30765 16.8027C7.30856 16.8685 7.30629 16.9348 7.3122 17.0003C7.31402 17.0195 7.33586 17.0478 7.35338 17.0518C7.37249 17.0562 7.40684 17.0436 7.41799 17.0277C7.46667 16.9573 7.39797 16.8279 7.30401 16.8063C7.30401 16.2005 7.29264 15.5943 7.31084 14.9892C7.31721 14.7766 7.39592 14.5662 7.44233 14.3549C7.44437 14.3459 7.45211 14.3318 7.45893 14.3309C7.58701 14.3112 7.53742 14.2075 7.56062 14.1366C7.60612 13.9973 7.65844 13.8602 7.70917 13.7227C7.7119 13.7154 7.72851 13.7138 7.73374 13.7063C7.76172 13.6664 7.78743 13.6251 7.81495 13.5847C7.84544 13.5401 7.87569 13.4953 7.90777 13.452C7.95759 13.3849 8.04563 13.3224 8.05268 13.2518C8.07247 13.0491 8.26902 12.9789 8.35979 12.8297C8.42485 12.7229 8.57318 12.6641 8.6032 12.518C8.60753 12.497 8.64802 12.4835 8.671 12.4659C8.76882 12.3897 8.86595 12.3129 8.96423 12.237C9.0327 12.184 9.11824 12.1438 9.16806 12.0778C9.24063 11.982 9.36074 11.9844 9.43786 11.9286C9.56366 11.8372 9.65125 11.6979 9.83437 11.7001C9.84552 11.7001 9.85576 11.6811 9.86804 11.6734C9.91877 11.6422 9.96837 11.6087 10.0221 11.5835C10.0491 11.5707 10.1087 11.5809 10.1121 11.5692C10.1567 11.4164 10.2923 11.4815 10.3888 11.4533C10.4324 11.4405 10.4711 11.4111 10.5118 11.3892C10.541 11.3736 10.5683 11.3488 10.5992 11.3431C10.7571 11.314 10.9418 11.3828 11.064 11.2201C11.0719 11.2095 11.1049 11.2159 11.1263 11.2159C11.73 11.2159 12.3336 11.2157 12.9373 11.2175C12.978 11.2175 13.0488 11.2243 13.0545 11.2429C13.0911 11.3594 13.1901 11.3157 13.2658 11.3336C13.4512 11.3773 13.6357 11.4246 13.8202 11.4711C13.8286 11.4733 13.8407 11.4833 13.8414 11.4903C13.8518 11.6014 13.9467 11.5678 14.0115 11.5846C14.0411 11.5921 14.0952 11.5945 14.0971 11.6054C14.1153 11.7182 14.2088 11.6934 14.2816 11.7107C14.3114 11.7177 14.3375 11.7411 14.3635 11.7595C14.3928 11.78 14.4169 11.8118 14.449 11.8237C14.5154 11.8484 14.6 11.8168 14.6289 11.9316C14.6435 11.989 14.7495 12.0665 14.81 12.0632C14.9577 12.055 15.0161 12.1749 15.1067 12.2332C15.2275 12.3107 15.2943 12.4628 15.4058 12.5599C15.5587 12.6933 15.7316 12.8014 15.7971 13.0094C15.8185 13.0772 15.8815 13.1363 15.9359 13.1895C16.0303 13.2818 16.1522 13.3529 16.1593 13.5037C16.1604 13.5262 16.1749 13.5668 16.1856 13.5677C16.3021 13.5754 16.2684 13.6666 16.2866 13.7291C16.2957 13.7609 16.3067 13.7929 16.3224 13.822C16.3503 13.8737 16.4052 13.9218 16.4086 13.9739C16.4215 14.1644 16.531 14.3282 16.586 14.5026C16.6277 14.6344 16.6506 14.7644 16.6738 14.8978C16.6832 14.9517 16.6911 15.0068 16.7095 15.0581C16.7303 15.1159 16.7846 15.1698 16.7855 15.2258C16.7917 15.6142 16.7883 16.0027 16.786 16.3912C16.7858 16.4319 16.7885 16.4939 16.7644 16.5096C16.629 16.5981 16.6813 16.7305 16.6718 16.8464C16.6693 16.8751 16.7061 16.9067 16.7248 16.9372C16.7475 16.9109 16.7787 16.8877 16.7914 16.8575C16.811 16.8111 16.8074 16.7235 16.8322 16.7164C16.9436 16.6853 16.9138 16.5999 16.9288 16.531C16.9343 16.506 16.9332 16.4621 16.9445 16.459C17.0929 16.4182 17.0387 16.299 17.054 16.2065C17.0606 16.1663 17.0608 16.0983 17.0813 16.0912C17.2209 16.0442 17.1641 15.9318 17.1795 15.8444C17.1946 15.7592 17.2021 15.6722 17.2248 15.5892C17.2405 15.5316 17.2997 15.4793 17.3001 15.4243C17.3049 14.8183 17.3024 14.2123 17.3008 13.6063C17.3008 13.5704 17.3074 13.5132 17.2881 13.5015C17.1186 13.3993 17.2055 13.2339 17.1739 13.0988C17.1638 13.0558 17.1481 13.0129 17.129 12.9728C17.1077 12.9279 17.0708 12.8889 17.0553 12.8429C17.0028 12.6869 16.9575 12.5284 16.9063 12.3718C16.9015 12.3573 16.8715 12.3524 16.8576 12.3385C16.8356 12.3162 16.811 12.293 16.7985 12.2654C16.7407 12.1365 16.6873 12.0056 16.6302 11.8765C16.6249 11.8648 16.6006 11.8619 16.5926 11.85C16.5278 11.7557 16.4655 11.6601 16.4013 11.5654C16.351 11.4914 16.3042 11.4146 16.2471 11.346C16.2048 11.295 16.1472 11.2557 16.0983 11.2095C16.0325 11.1475 15.9666 11.0857 15.904 11.0208C15.8467 10.9614 15.8003 10.8912 15.7379 10.8376C15.6274 10.7426 15.4927 10.67 15.3978 10.5634C15.3025 10.4563 15.2243 10.3446 15.0648 10.3283C15.0475 10.3265 15.0295 10.3097 15.0166 10.2958C14.9276 10.2009 14.8487 10.0931 14.6976 10.0859C14.6735 10.0848 14.6328 10.0746 14.6292 10.0609C14.585 9.90042 14.3534 10.0073 14.3111 9.84854C14.1248 9.85671 13.9879 9.71896 13.8072 9.68341C13.6828 9.65891 13.549 9.59511 13.408 9.58407C13.3925 9.58297 13.3677 9.58098 13.3636 9.57237C13.2872 9.40857 13.1336 9.49201 13.0144 9.47126C12.9157 9.45404 12.7703 9.49025 12.7228 9.43749C12.637 9.34212 12.5472 9.35625 12.4521 9.35514C12.1529 9.35183 11.8536 9.3536 11.5544 9.3547C11.5121 9.3547 11.4445 9.34786 11.4318 9.36883C11.3497 9.50438 11.2084 9.47965 11.1017 9.46155C10.8119 9.4121 10.5826 9.63109 10.3035 9.60659C10.2912 9.60549 10.2673 9.61917 10.2661 9.628C10.2518 9.73618 10.1599 9.70218 10.0946 9.72139C9.94403 9.76532 9.76499 9.78187 9.65625 9.87437C9.57822 9.94082 9.51407 9.96533 9.42581 9.98144C9.40283 9.98564 9.38713 10.0203 9.36484 10.0373C9.28863 10.0954 9.2156 10.1596 9.13257 10.2062C9.07297 10.2397 8.98015 10.1996 8.95831 10.3179C8.94831 10.3722 8.8523 10.4484 8.79316 10.4503C8.57409 10.4576 8.50538 10.6607 8.3491 10.7495C8.22694 10.8188 8.16893 10.9872 8.05473 11.0795C7.94053 11.172 7.82155 11.2455 7.8054 11.4045C7.80358 11.4221 7.77241 11.436 7.75694 11.4535C7.68187 11.5374 7.56654 11.5921 7.5538 11.7208C7.55129 11.7462 7.5522 11.7811 7.53628 11.7948C7.41457 11.8974 7.29196 11.9974 7.29628 12.1749C7.29651 12.1853 7.27581 12.195 7.26807 12.2069C7.23622 12.2559 7.2021 12.3043 7.17616 12.3562C7.16297 12.3824 7.1723 12.4403 7.1607 12.4431C6.99941 12.484 7.06856 12.6164 7.04331 12.71C7.03535 12.7396 7.04081 12.7922 7.02602 12.7975C6.87383 12.8533 6.9373 12.9836 6.9141 13.0834C6.90523 13.1215 6.89635 13.1604 6.88088 13.1962C6.85495 13.256 6.80741 13.3112 6.79831 13.3726C6.7817 13.4847 6.78852 13.5999 6.78147 13.7136C6.77942 13.7476 6.76737 13.7821 6.75395 13.8141C6.72824 13.8757 6.67546 13.9353 6.67432 13.9964C6.6675 14.3744 6.67159 14.7527 6.67319 15.1309C6.67319 15.172 6.66522 15.2322 6.68888 15.251C6.83857 15.3707 6.77055 15.5347 6.7933 15.6795C6.80035 15.7239 6.80331 15.77 6.81923 15.8113C6.84653 15.8822 6.89112 15.9475 6.91342 16.0195C6.96619 16.1899 7.00987 16.3632 7.05833 16.535C7.0606 16.5433 7.07038 16.555 7.07766 16.5557C7.19072 16.5659 7.17207 16.6559 7.17389 16.7204C7.17685 16.8235 7.22621 16.8314 7.30743 16.8027H7.30765ZM13.8562 20.9226C13.6755 20.9232 13.4949 20.9226 13.3143 20.9263C13.2854 20.927 13.2572 20.9486 13.2285 20.9601C13.1698 20.9839 13.1114 21.0274 13.0527 21.0281C12.433 21.033 11.8133 21.0312 11.1934 21.0305C11.1509 21.0305 11.0867 21.0411 11.069 21.0193C10.935 20.853 10.745 20.94 10.5824 20.9084C10.5257 20.8974 10.4318 20.9047 10.4183 20.8758C10.3697 20.7716 10.2823 20.7892 10.2034 20.7897C10.007 20.7908 9.86736 20.5996 9.65966 20.6429C9.65193 20.6444 9.64055 20.6204 9.62827 20.6122C9.59028 20.5875 9.55343 20.5588 9.5118 20.5422C9.38258 20.4908 9.25109 20.4442 9.12097 20.3947C9.11346 20.3919 9.11232 20.3755 9.10482 20.3705C9.06364 20.3431 9.0211 20.3179 8.9797 20.2908C8.9342 20.2607 8.89075 20.2274 8.84412 20.1991C8.75494 20.1453 8.66372 20.0949 8.57454 20.0409C8.53314 20.0157 8.49515 19.985 8.45465 19.9583C8.37026 19.9024 8.28404 19.849 8.20078 19.7914C8.11433 19.7316 8.02584 19.6733 7.9469 19.6046C7.83475 19.5073 7.73033 19.4013 7.62318 19.2987C7.51581 19.1958 7.4082 19.0931 7.30242 18.9892C7.23827 18.9262 7.17457 18.8624 7.11543 18.7953C7.04923 18.7203 6.9828 18.6441 6.92661 18.562C6.8934 18.5134 6.92115 18.4437 6.82105 18.4158C6.75531 18.3975 6.71232 18.2889 6.6675 18.2158C6.60972 18.1213 6.58515 17.9873 6.50234 17.9326C6.36949 17.8449 6.36471 17.6975 6.30215 17.5893C6.22435 17.4546 6.08831 17.31 6.12926 17.1226C6.0071 17.0641 6.02143 16.952 6.01324 16.8482C6.0121 16.835 6.00209 16.8133 5.99254 16.8113C5.86992 16.7857 5.90314 16.6882 5.89404 16.612C5.88448 16.5299 5.91428 16.4087 5.86878 16.3714C5.69589 16.2301 5.79098 16.0477 5.75663 15.8877C5.7448 15.8329 5.75663 15.7475 5.7241 15.7274C5.62469 15.6658 5.64152 15.5791 5.64084 15.4954C5.63766 15.0861 5.62992 14.6768 5.64016 14.2677C5.64448 14.0982 5.57328 13.9075 5.74389 13.7644C5.76437 13.7472 5.75504 13.6951 5.75686 13.6589C5.76209 13.5452 5.76437 13.4311 5.77096 13.3174C5.77301 13.2825 5.77711 13.2233 5.79462 13.2178C5.91974 13.1787 5.87129 13.0767 5.89131 12.9986C5.93567 12.824 5.98571 12.6507 6.03371 12.4767C6.03508 12.4718 6.03735 12.4637 6.04031 12.463C6.18227 12.4381 6.13335 12.3248 6.15087 12.2416C6.15929 12.2016 6.16543 12.1581 6.18636 12.1241C6.25506 12.0129 6.32991 11.9054 6.40293 11.7965C6.44183 11.7385 6.48983 11.6844 6.5194 11.6221C6.57764 11.4998 6.62519 11.3729 6.6791 11.2486C6.68411 11.2369 6.70321 11.2314 6.71459 11.2217C6.78033 11.1656 6.85108 11.1139 6.90955 11.0515C6.95937 10.998 6.99713 10.9334 7.03649 10.8715C7.09381 10.7819 7.13431 10.6777 7.20688 10.6024C7.30606 10.4998 7.43095 10.4208 7.54038 10.3267C7.5952 10.2795 7.64092 10.2221 7.68938 10.1682C7.74693 10.1044 7.79948 10.0357 7.86113 9.97592C7.90959 9.9289 7.9635 9.86797 8.02402 9.85561C8.16961 9.82581 8.24627 9.72712 8.33727 9.63087C8.39892 9.56575 8.48582 9.51895 8.56863 9.47766C8.6876 9.41828 8.81318 9.37148 8.93556 9.31828C8.94376 9.31474 8.94626 9.29951 8.95445 9.29465C9.06865 9.2282 9.17875 9.1527 9.29909 9.09906C9.43126 9.04034 9.57322 9.00215 9.71062 8.95424C9.71904 8.95137 9.72313 8.9379 9.73155 8.93283C9.77841 8.90435 9.8255 8.85379 9.87328 8.85291C10.0855 8.84938 10.2477 8.65489 10.4732 8.71052C10.4818 8.71273 10.4948 8.69065 10.508 8.68403C10.5628 8.65577 10.6165 8.61294 10.6745 8.60544C10.7903 8.59043 10.909 8.59705 11.0264 8.59021C11.0665 8.58778 11.1072 8.57564 11.1449 8.56151C11.2089 8.53744 11.2705 8.48579 11.3338 8.48512C11.8627 8.47894 12.3916 8.48115 12.9205 8.48314C12.9664 8.48314 13.0138 8.49616 13.0577 8.51117C13.1266 8.53479 13.1907 8.57895 13.2608 8.58932C13.3709 8.60544 13.4847 8.59815 13.5964 8.60632C13.6355 8.60919 13.6742 8.62619 13.7112 8.64098C13.7731 8.66549 13.832 8.69926 13.8957 8.71604C13.9171 8.72156 13.9499 8.68712 13.9774 8.671C13.9562 8.64849 13.9396 8.61736 13.9133 8.60455C13.8077 8.55378 13.6582 8.53568 13.6018 8.4551C13.5261 8.34649 13.4373 8.36393 13.3438 8.34781C13.3079 8.34163 13.2465 8.33721 13.2415 8.31977C13.2094 8.20829 13.1157 8.23323 13.0376 8.22131C13.0119 8.21734 12.9664 8.21447 12.9642 8.20387C12.9335 8.06546 12.817 8.11888 12.7326 8.10321C12.6857 8.0946 12.6059 8.10409 12.5961 8.08201C12.5283 7.93013 12.39 7.99768 12.2819 7.97605C12.2301 7.96567 12.1504 7.98488 12.1272 7.95662C11.9967 7.79856 11.8165 7.87737 11.66 7.84845C11.6161 7.84028 11.5728 7.82615 11.5312 7.81026C11.4759 7.78906 11.4227 7.74292 11.3681 7.74248C10.743 7.73652 10.1181 7.73674 9.49291 7.73785C9.44878 7.73785 9.40306 7.75551 9.36051 7.77118C9.30091 7.79326 9.24518 7.83719 9.18467 7.84359C9.04704 7.85816 8.90736 7.85331 8.76859 7.86081C8.72195 7.86324 8.64847 7.86545 8.63437 7.89172C8.57522 8.00144 8.47308 7.96192 8.38573 7.98113C8.20669 8.02064 8.0297 8.06987 7.85249 8.11689C7.84021 8.12021 7.83406 8.14029 7.82201 8.14846C7.78424 8.17429 7.74807 8.20696 7.70576 8.22109C7.54629 8.27385 7.38273 8.3158 7.22462 8.37209C7.17525 8.38953 7.13795 8.46967 7.09563 8.46923C6.94708 8.46812 6.88771 8.59771 6.77783 8.65069C6.66795 8.70368 6.57059 8.82797 6.46503 8.83084C6.31694 8.83459 6.24755 8.94166 6.17203 9.00192C6.05669 9.09398 5.97411 9.21783 5.80759 9.2335C5.79622 9.23461 5.78552 9.25161 5.77597 9.26242C5.67951 9.36949 5.5892 9.4823 5.48524 9.58186C5.42382 9.64081 5.33623 9.67326 5.26981 9.72823C5.21384 9.77459 5.17358 9.83817 5.12217 9.89027C5.01206 10.0018 4.89672 10.1082 4.78889 10.2216C4.72679 10.2872 4.67083 10.3594 4.62032 10.4338C4.56027 10.5223 4.5241 10.6307 4.44994 10.7042C4.35189 10.8013 4.2254 10.8718 4.22245 11.0298C4.22222 11.0475 4.21153 11.0718 4.1972 11.0811C4.06411 11.1698 4.03773 11.3221 3.97335 11.4482C3.91511 11.5621 3.80478 11.6557 3.81046 11.8016C3.81137 11.8272 3.72197 11.8544 3.72129 11.882C3.71742 12.0621 3.52474 12.1857 3.56864 12.3769C3.42009 12.4643 3.47014 12.6171 3.43988 12.7434C3.43624 12.7582 3.4326 12.7807 3.42237 12.7849C3.29793 12.8374 3.3382 12.946 3.32887 13.0372C3.32409 13.0836 3.34002 13.1544 3.31499 13.1725C3.13619 13.3001 3.224 13.4832 3.20216 13.6412C3.1851 13.764 3.23196 13.9238 3.16735 14.0048C3.05179 14.1498 3.08568 14.296 3.08204 14.4426C3.07454 14.7583 3.08136 15.0744 3.08455 15.3905C3.085 15.436 3.08273 15.5064 3.10911 15.5221C3.22172 15.5888 3.19101 15.691 3.19602 15.7839C3.20261 15.908 3.2017 16.0325 3.20716 16.1566C3.20898 16.197 3.20921 16.2636 3.23082 16.2729C3.36595 16.331 3.30839 16.4466 3.33001 16.5391C3.37596 16.7345 3.4276 16.9286 3.47742 17.1231C3.47992 17.1326 3.48675 17.1465 3.49403 17.1482C3.60277 17.1734 3.5782 17.2617 3.58843 17.3332C3.59276 17.3635 3.58775 17.4127 3.60413 17.4206C3.79317 17.5123 3.6999 17.7313 3.82639 17.871C3.9051 17.958 3.96925 18.0935 4.04955 18.2035C4.1178 18.2971 4.1699 18.403 4.21972 18.5077C4.24929 18.5699 4.21153 18.6565 4.33164 18.6812C4.38829 18.6929 4.46449 18.783 4.46791 18.841C4.47996 19.0485 4.6772 19.1287 4.76819 19.281C4.84008 19.4013 4.99887 19.47 5.1051 19.5748C5.2102 19.6784 5.28869 19.8075 5.39583 19.9088C5.50435 20.0115 5.65085 20.0793 5.74913 20.1888C5.84877 20.3 5.93225 20.4135 6.09696 20.4292C6.10947 20.4303 6.12289 20.4446 6.13199 20.4559C6.21548 20.5566 6.29351 20.6634 6.44388 20.6758C6.46367 20.6773 6.4871 20.6859 6.50075 20.6989C6.60676 20.799 6.69798 20.9197 6.86837 20.9208C6.88339 20.9208 6.89726 20.9447 6.91342 20.955C6.95436 20.982 6.99372 21.0237 7.03831 21.0308C7.17617 21.0522 7.2551 21.21 7.41321 21.1791C7.41639 21.1784 7.42117 21.1979 7.42891 21.2029C7.47031 21.2299 7.50989 21.2619 7.55562 21.2793C7.59383 21.2939 7.66868 21.2789 7.67687 21.2977C7.73988 21.4418 7.87387 21.3908 7.98057 21.4129C8.01014 21.4191 8.06201 21.4235 8.06497 21.4367C8.09226 21.5586 8.1935 21.5208 8.27039 21.5303C8.35501 21.5407 8.47763 21.5113 8.51881 21.5557C8.65666 21.7045 8.83001 21.6354 8.98584 21.6652C9.0252 21.6727 9.06341 21.6866 9.10072 21.701C9.16033 21.7237 9.21856 21.7703 9.27748 21.7707C10.0148 21.776 10.7521 21.7749 11.4891 21.7745C11.5314 21.7745 11.5972 21.7805 11.6122 21.7584C11.7137 21.6094 11.869 21.6771 12.0017 21.6562C12.0581 21.6473 12.1518 21.6562 12.165 21.6284C12.2173 21.5182 12.3138 21.5526 12.3968 21.5341C12.6016 21.4884 12.8195 21.4643 13.0022 21.3743C13.0934 21.3292 13.2028 21.3171 13.2692 21.2654C13.3618 21.1935 13.4449 21.146 13.5604 21.1469C13.5675 21.1469 13.5807 21.1341 13.5809 21.1268C13.5854 21.0122 13.683 21.0323 13.746 21.0345C13.8436 21.0378 13.8439 20.9795 13.8521 20.9177C13.9144 20.9111 13.9772 20.9067 14.0388 20.8965C14.0559 20.8939 14.0784 20.8771 14.0832 20.8623C14.0877 20.8477 14.0745 20.8129 14.0659 20.8118C14.0045 20.8043 13.9406 20.7948 13.8812 20.8056C13.8659 20.8084 13.8646 20.8817 13.8568 20.9228L13.8562 20.9226Z" fill="white"/>
</g>
<defs>
<clipPath id="clip0_1_998">
<rect width="124" height="24" fill="white" transform="translate(0 4)"/>
</clipPath>
</defs>
</svg>
