<svg width="32" height="32" viewBox="0 0 32 32" fill="none" xmlns="http://www.w3.org/2000/svg">
<path d="M25.0729 12.0009C25.0729 9.52556 24.0895 7.15143 22.3392 5.40116C20.5888 3.65076 18.2149 2.66769 15.7395 2.66769C13.2642 2.66769 10.8902 3.65076 9.13981 5.40116C7.38954 7.15143 6.40621 9.52556 6.40621 12.0009V20.0009C6.40621 22.4763 7.38954 24.8502 9.13981 26.6005C10.8902 28.3508 13.2642 29.3342 15.7395 29.3342C18.2149 29.3342 20.5888 28.3508 22.3392 26.6005C24.0895 24.8502 25.0729 22.4763 25.0729 20.0009V12.0009Z" stroke="#6D6D6D" stroke-width="1.5" stroke-linecap="round" stroke-linejoin="round"/>
<path d="M15.7396 18.6677V8.00106" stroke="#6D6D6D" stroke-width="1.5" stroke-linecap="round" stroke-linejoin="round"/>
<path d="M11.7396 12.001L15.7396 8.00098L19.7396 12.001" stroke="#6D6D6D" stroke-width="1.5" stroke-linecap="round" stroke-linejoin="round"/>
</svg>
