<svg width="24" height="24" viewBox="0 0 24 24" fill="none" xmlns="http://www.w3.org/2000/svg">
<path d="M5.19531 15C5.19531 16.8565 5.93285 18.6371 7.2456 19.9498C8.55836 21.2626 10.3388 21.9999 12.1953 21.9999C14.0518 21.9999 15.8323 21.2626 17.1451 19.9498C18.4578 18.6371 19.1953 16.8565 19.1953 15V9C19.1953 7.14348 18.4578 5.36305 17.1451 4.05029C15.8323 2.73754 14.0518 2 12.1953 2C10.3388 2 8.55836 2.73754 7.2456 4.05029C5.93285 5.36305 5.19531 7.14348 5.19531 9V15Z" stroke="#6D6D6D" stroke-width="1.5" stroke-linecap="round" stroke-linejoin="round"/>
<path d="M12.1953 6V14" stroke="#6D6D6D" stroke-width="1.5" stroke-linecap="round" stroke-linejoin="round"/>
<path d="M15.1953 11L12.1953 14L9.19531 11" stroke="#6D6D6D" stroke-width="1.5" stroke-linecap="round" stroke-linejoin="round"/>
</svg>
